<?xml version="1.0" encoding="UTF-8"?>
<svg id="Layer_1" xmlns="http://www.w3.org/2000/svg" version="1.1" viewBox="0 0 120 120">
  <!-- Generator: Adobe Illustrator 30.0.0, SVG Export Plug-In . SVG Version: 2.1.1 Build 123)  -->
  <defs>
    <style>
      .st0 {
        fill: #f1f3f7;
      }

      .st1 {
        fill: #5f89c4;
      }

      .st2 {
        fill: #70777e;
      }

      .st3 {
        fill: #727a80;
      }

      .st4 {
        fill: #fbfcfc;
      }

      .st5 {
        fill: #c7ccd0;
      }

      .st6 {
        fill: #e3e9f1;
      }

      .st7 {
        fill: #89bafe;
      }

      .st8 {
        fill: #f1f4f5;
      }

      .st9 {
        fill: #401075;
      }

      .st10 {
        fill: #fefefe;
      }

      .st11 {
        fill: #6799ed;
      }

      .st12 {
        fill: #5c6265;
      }

      .st13 {
        fill: #3f59ac;
      }

      .st14 {
        fill: #c5eff9;
      }
    </style>
  </defs>
  <circle class="st14" cx="60" cy="60" r="60.2"/>
  <g id="leep4h.tif">
    <g>
      <polygon class="st10" points="154.5 99.2 154.4 99.2 154.4 34.7 256.8 34.7 256.8 34.8 154.5 34.8 154.5 99.2"/>
      <path class="st10" d="M236,40.5v16.5h-12c-.2-.4-.3-.8-.5-1.3-2-5-6-8.9-11-10.6-9.9-3.5-20.7,2-23.8,11.9h-11.1v-16.5h58.5,0Z"/>
      <path class="st10" d="M236.4,57v-16.5c3.1,0,6.7-.2,9.7,0s5.9,2.5,7,5.3c2,5.2-1.7,10.9-7.2,11.2-3,.2-6.4,0-9.4,0h-.1ZM243.9,45.7c-.6,0-1,.6-1,1.2s0,2,.2,2.4c.5,1,2,.8,2.3-.3v-2.2c0-.7-.7-1.2-1.5-1.1ZM245.3,49.8c-.8.8-2.2.5-2.5-.6,0-.2,0-.7-.3-.7-.5,0,0,1,0,1.3.1.2.4.5.7.7.2,0,.8.2.8.3v.6h-.5c-.3,0-.3.4,0,.5h1.4c.2,0,.4,0,.4-.2,0-.4-.7-.2-.7-.3v-.6s.4,0,.5,0c.7-.3,1.2-.9,1.2-1.6s0-.7-.4-.4c-.1,0-.2.9-.5,1.2h0Z"/>
      <path class="st10" d="M177.2,40.5v16.5c-3,0-6.4.2-9.4,0-3.3-.2-6.2-2.4-7.3-5.5-1.8-5.1,1.7-10.4,7-11h9.7ZM172,51.8s.1-.3,0-.4c-.2-.3-1.5-1.4-1.6-1.6,0,0,.3-.6.4-.8,1-3.2-3.8-4.6-4.8-1.7-.9,2.5,1.8,4.4,3.9,3l1.6,1.6h.5Z"/>
      <path class="st6" d="M188.7,57c3.1-9.9,13.9-15.4,23.8-11.9,5,1.8,9.1,5.7,11,10.6.2.4.3.9.5,1.3,0,0,.5,2.3.6,2.6.7,4.5-.3,9.6-3,13.3-1.2,1.8-3.1,3.7-4.9,4.9-3.9,2.7-9.2,3.7-13.8,2.8-10.8-2-17.5-13.1-14.2-23.7h0ZM194.5,74.2c8.2,8.3,22.2,5.7,26.9-4.9,5.6-12.6-5.9-26.1-19.2-22.7-12.3,3.1-16.6,18.5-7.6,27.6h0Z"/>
      <path class="st13" d="M221,81.2l3.8-3.9c.5-.2.7-.2,1.2,0l14,14c2.4,3.3-1.6,7.3-4.8,4.8l-14-14c-.2-.2-.3-.8-.1-1h0Z"/>
      <path class="st5" d="M221.6,73l1.5,1.5c.2.2.3.9.1,1.1h0c-.9,1.2-2.5,2.5-3.6,3.7,0,0-.1,0-.1.2h-.8c-.4,0-1.2-1-1.5-1.3-.1,0-.3-.3-.4-.3,1.8-1.2,3.7-3.1,4.9-4.9h0Z"/>
      <path class="st12" d="M223.3,75.6l1.6,1.7-3.8,3.9c0,0,0-.2-.1-.2-.2-.2-1.4-1.4-1.5-1.4,0,0,0-.2.1-.2,1.1-1.2,2.7-2.4,3.6-3.7h0Z"/>
      <path class="st0" d="M236.4,40.5v16.5h-.4v-16.5h.4Z"/>
      <path class="st8" d="M177.6,40.5v16.5h-.4v-16.5h.4Z"/>
      <path class="st2" d="M243.9,45.7c.7,0,1.4.4,1.4,1.1v2.2c-.3,1.1-1.8,1.3-2.3.3-.2-.4-.2-1.9-.2-2.4s.4-1.1,1-1.2h.1Z"/>
      <path class="st3" d="M245.3,49.8c.3-.4.4-1.2.5-1.2.3-.2.4.2.4.4,0,.7-.6,1.3-1.2,1.6-.1,0-.5,0-.5,0v.6s.7-.2.7.3-.2.2-.4.2h-1.4c-.2,0-.2-.5,0-.5h.5v-.6s-.6-.2-.8-.3-.5-.4-.7-.7-.5-1.2,0-1.3c.3,0,.3.5.3.7.3,1.1,1.8,1.4,2.5.6h0Z"/>
      <path class="st3" d="M172,51.8h-.4l-1.6-1.6c-2.1,1.5-4.8-.5-3.9-3,1-2.9,5.8-1.5,4.8,1.7,0,.2-.4.7-.4.8,0,.2,1.4,1.3,1.6,1.6v.4h-.1ZM168.1,46.3c-1.3.2-2,1.7-1.3,2.8,1,1.7,3.7.8,3.5-1.2-.1-1-1.1-1.8-2.1-1.6h0Z"/>
      <path class="st1" d="M194.5,74.2c-9-9.1-4.7-24.5,7.6-27.6,13.4-3.4,24.8,10.1,19.2,22.7-4.7,10.6-18.7,13.2-26.9,4.9h0ZM217.1,73.9c9.4-9,4.4-24.9-8.5-26.8-9.8-1.4-18.3,6.4-17.9,16.2.6,13.3,16.8,19.8,26.4,10.6h0Z"/>
      <path class="st4" d="M168.1,46.3c1,0,2,.6,2.1,1.6.2,2-2.4,2.9-3.5,1.2-.7-1.1,0-2.7,1.3-2.9h0Z"/>
      <path class="st11" d="M217.1,73.9c-9.6,9.3-25.8,2.7-26.4-10.6-.4-9.8,8.1-17.6,17.9-16.2,12.9,1.9,17.9,17.7,8.5,26.8h0ZM197,51.7c-.9,0-1.7,1.1-2.1,1.8-2.7,3.6-3.5,8.8-2.1,13,0,.3.3,1,.5,1.2.3.5,1.1.3,1.2-.3.1-2,0-4.2.7-6.1.6-1.8,1.8-3.2,3.1-4.5,1.1-1.1,2.8-2.1,1.4-3.7-.5-.6-1.8-1.4-2.6-1.3h0ZM195.1,69.4c-1,0-1,1.8.3,1.6.9,0,.8-1.7-.3-1.6Z"/>
      <path class="st7" d="M197,51.7c.8,0,2.1.7,2.6,1.3,1.4,1.7-.3,2.6-1.4,3.7-1.3,1.4-2.5,2.7-3.1,4.5-.6,1.9-.6,4.1-.7,6.1-.1.6-.9.7-1.2.3-.1-.2-.4-.9-.5-1.2-1.4-4.3-.5-9.4,2.1-13,.5-.7,1.3-1.7,2.1-1.8h0Z"/>
      <path class="st7" d="M195.1,69.4c1,0,1.2,1.4.3,1.6-1.2.2-1.3-1.5-.3-1.6Z"/>
    </g>
  </g>
  <g id="_x31_dR0tH.tif">
    <g>
      <path class="st9" d="M96.7,65.7v13.3c0,.6-1.1,2.2-1.7,2.2h-27.3v9.7h6.9s1,.4,1.1.5c1.3,1,1.4,5.6-.8,6h-33.8c-2.2-.2-2.3-4.6-1.2-5.8s1.2-.7,1.3-.7h6.9v-9.7h-27.3c-.2,0-1.2-.7-1.3-.9-.3-.5-.3-1.4-.4-2v-44.7c.1-1.4.3-2.5,1.8-2.9h42.8c.6-.2,2.2-2.2,2.9-2.7,6.5-5.4,16.4-4,21.4,2.6,2.8.6,8.4-1.7,8.7,2.6v21.2l6.8,6.8c.6.7.6,2,0,2.8-.6.8-2.9,3-3.2,3.1-1.7.7-2.5-.3-3.7-1.3h0ZM85.6,30c-7.1-7.1-19.6-4-22.5,5.7s7.7,20.9,18.4,16.3,10.8-15.3,4.1-22ZM63,32H21.3l-.5.5v39.8h74.3v-8.3l-6.5-6.5c-.5-.2-.3.7-.4,1-.3.9-.9,1.3-1.9,1.4h-26.1c-.6-.4-1.3-1-1.4-1.8-.2-1.1-.2-7.2,0-8.1s1-1.4,1.4-1.4h3.1l.2-.4c-3.4-4.7-3.6-11.2-.7-16.3h.2,0ZM95.1,52.4v-19.9l-.5-.5h-5.5c1.7,3.4,2.3,7,1.6,10.7s-.9,2.7-1.4,4.1l5.7,5.5h.1ZM85,51.5l13.7,14,.6.2c.7,0,3.3-2.6,3.2-3.3l-13.8-14.1h-.4c-.7.4-2.1,3-3.3,3.2h0ZM60.3,50.6v7.2c0,.6.9.7,1.3.7,7.7.7,16.3-.5,24.1,0l1-.4c0-.7.3-1.9,0-2.6s-2.8-2.9-3-2.9c-5.3,3-11.5,2.7-16.6-.8s-1.6-1.6-2-1.7-3.6,0-4.1,0-.7.3-.7.5ZM95.1,73.8H20.8v5.5l.6.4h73.1l.6-.4v-5.5ZM66.1,81.2h-16.3v9.7h16.3v-9.7ZM41.3,92.5c-.8.3-.8,2.7,0,3.3l32.7.2c1.5,0,1.5-3.3.4-3.5h-33.1Z"/>
      <path class="st9" d="M30.8,41.4c1.7.4,1.9,4.4,2.3,4.5h19.8c.9.5,1.5,1.5,1.4,2.5-1.2,3-1.3,7.8-2.5,10.7s-.9,1.2-1.4,1.2h-13.5l.4,2.3.6.3,13.4.2c.8.6.3,1.6-.6,1.5,1.3,4.9-6,4.8-4.9,0h-4.1c1.4,4.1-5,5.1-5.2,1.1s.8-1.2-.7-2.8l-5.1-19.8c-.4-.7-3.3,0-4.2-.4s-.6-1.4-.2-1.4c1.2,0,3.6-.2,4.5,0h0ZM52.2,47.4h-18.8l3,11.5,13.8-.2c.2,0,.2-.3.3-.5.5-1.4,2.2-8.3,2.3-9.7s0-1-.5-1.1h0ZM38.6,64.7c-1.1.3-.5,2.5.7,2.1s1.1-2.7-.7-2.1ZM47.7,64.7c-1.1.3-.5,2.5.7,2.1,1.7-.5,1-2.7-.7-2.1Z"/>
      <path class="st9" d="M88.5,62.2c.3.2.2,1.4-.3,1.4h-29.1v-1.4h29.4Z"/>
      <path class="st9" d="M59.2,67h14.8c.6,0,.6,1.4,0,1.4h-14.8c-.4,0-.5-1.2,0-1.4Z"/>
      <path class="st9" d="M74,28.7c11.4-1.5,17.5,12.3,8.9,19.4s-18.8,0-17.9-9.7c.4-4.6,4.4-9.1,9-9.7ZM75.1,30.2c-12.4,1.2-10.6,19.9,1.8,18.9,12.2-1,10.8-20.1-1.8-18.9Z"/>
    </g>
  </g>
  <circle class="st14" cx="-125.1" cy="60" r="60.2"/>
</svg>