<?xml version="1.0" encoding="UTF-8"?>
<svg id="Layer_1" xmlns="http://www.w3.org/2000/svg" version="1.1" viewBox="0 0 120 120">
  <!-- Generator: Adobe Illustrator 30.0.0, SVG Export Plug-In . SVG Version: 2.1.1 Build 123)  -->
  <defs>
    <style>
      .st0 {
        fill: #401075;
      }

      .st1 {
        fill: #d5cee0;
      }
    </style>
  </defs>
  <circle class="st1" cx="60" cy="60" r="60.2"/>
  <g id="vSbtja.tif">
    <g>
      <path class="st0" d="M52.5,88.7c-5.7-1.5-10.2-5.4-13.9-9.9-.7-.8-1.3-2.4-2-3-2.8-2.4-4.6-1.7-6.3-6.4-1-2.8-.4-5.4-1-7.4-.1-.5-1.4-1.5-1.8-2.5-1-2.4-1.2-4.8-.1-7.2.5-1.1,1.8-2,2-3.1.4-2.1-.1-5.3,0-7.6,2.4-37.5,61.2-37.1,63.5-.4.2,2.4-.4,5.9,0,8,.2.9,1.8,2.4,2.2,3.6.8,2.2.8,4-.1,6.2-.5,1.2-1.9,2.5-2.1,3-.6,2.1.2,4.4-1,7.4-1.8,4.7-3.9,4-6.5,6.6-3.5,3.4-4.1,6.4-9.2,9.7-1.1.7-6,2.9-6.3,3.2-.7.8-.3,4.1-.2,5.3,9.1,3,16.9,8.9,21.2,17.6-18,10.6-41.8,10.5-59.8,0,4.3-8.7,12.1-14.6,21.2-17.6v-5.4c.1,0,.1,0,.1,0ZM69.6,35.3c-1.2,8.2-11.9,10-16.2,3l-1.2-3c-.5,3.3-3.8,6.8-7.1,7.2s-7.7-1.1-8.7,3.6c-.7,3.3-.5,15-.2,18.7,1.6,17.5,21.6,27.6,36.9,19.1,13.5-7.5,14-22.3,12.8-36.2-.7-7.8-6.8-3.8-11.5-6.3-.8-.4-1.7-1.3-2.4-1.9l-2.4-4.3h0ZM32.9,51.3c-4.6,1.3-4.4,7.8,0,9.4v-9.4ZM89.2,60.7c4.3-1.6,4.6-8.1,0-9.4v9.4ZM66.7,89.8c-3.7.6-7.5.6-11.2,0v6.2c3.6,1.6,8.1,2.3,11.2-.5v-5.6Z"/>
      <path class="st0" d="M69.9,72.4c2,3.1-6.4,5.7-8.5,5.7-2.3,0-9.2-2-9.2-4.9,0-3.2,4.5.6,5.8,1.1,2.4.8,4.4.8,6.8,0,1.2-.4,4.2-3.2,5.1-1.8h0Z"/>
      <path class="st0" d="M50.6,47.4c1,0,2.6.4,2.7,1.5,0,2.5-2.7,1.1-4.2,2-.9.6-1.4,3.7-3.3,2.2-2.4-1.9,2.2-5.7,4.8-5.7h0Z"/>
      <path class="st0" d="M71.2,47.4c2.8-.1,7.4,3.8,5.1,5.7-1.9,1.5-2.4-1.6-3.3-2.2-1.4-.9-4.1.5-4.2-2,0-1.1,1.5-1.5,2.4-1.5h0Z"/>
      <path class="st0" d="M57,62.3c2.2-2.5,8.8-1.6,8.5,1.1-.2,2.8-3.6.3-4.8.3s-2.2,1.6-3.5.8l-.6-.9c-.2-.5,0-1,.3-1.4Z"/>
      <path class="st0" d="M50,57.4c-2-2,1.3-5.5,3.3-3.2s-1.7,4.8-3.3,3.2Z"/>
      <path class="st0" d="M69.8,53.5c2.9-.5,3.6,3.5,1.3,4.2-3.3,1-4-3.7-1.3-4.2Z"/>
    </g>
  </g>
</svg>