<?xml version="1.0" encoding="UTF-8"?>
<svg id="Layer_1" xmlns="http://www.w3.org/2000/svg" version="1.1" viewBox="0 0 120 120">
  <!-- Generator: Adobe Illustrator 30.0.0, SVG Export Plug-In . SVG Version: 2.1.1 Build 123)  -->
  <defs>
    <style>
      .st0 {
        fill: #401075;
      }

      .st1 {
        fill: #c5eff9;
      }
    </style>
  </defs>
  <circle class="st1" cx="60" cy="60" r="60.2"/>
  <g id="fvPQUq.tif">
    <g>
      <path class="st0" d="M73.5,48.4l5.3-1.4,15.1,5.5v.5c-1.8,8.4-3.9,16.8-6.1,25.2-.3,1.4-2.4,10.1-2.8,10.5s-.7.3-1,.2l-14.3-5-5.2,1.6-.8,2.3c0,.4,2.1,1.8,2.2,2.4s-.5,1.1-.3,1.5c.5,1.1,1.4-.5,2.1.2l8,8.1c2,3.4-1.8,6.6-4.9,4.3l-7.7-7.6c-.8-1,.8-1.5-.3-2.3s-.7.3-1.3.3c-.9,0-1.8-1.7-2.6-2.1-5.9,3.3-13.4,1-16.4-5s-.6-2-.9-2.3-3.8-1.5-4.2-1.5-.8.2-1.2.3c-5.2,1.2-10.5,3.4-15.6,4.7l-.9-.3-.2-.9,8.9-35.4,15.1-4.7c-4.4-7.2-6.1-15.5-1.6-23.2,11.5-19.6,42.5-6.6,34.9,16.7-.8,2.6-2.3,4.8-3.4,7.2v.2ZM57.3,16.7c-10.5.9-17.8,10.6-16,20.9,1.6,8.7,10,18.2,16,24.5,6,6.3.7.8,1.2,1,.6,0,6.8-6.8,7.6-7.8,4.1-4.8,9-11.7,10-18,1.8-11.3-7.4-21.5-18.8-20.5h0ZM65,83.4c1-.5,2.7-.7,3.7-1.1s.3-.2.4-.4l8.2-32.8-5.6,1.9c-3.8,5.2-8.2,9.8-12.6,14.5l-1.5,5.8c4.9,1.9,7.9,6.9,7.4,12.1ZM92.1,53.6l-12.8-4.5-.2.2-8.2,32.7.2.4,12.7,4.3,8.2-33.2h.1ZM44.9,49.5c-.3-.2-1.5.2-1.9.3-4.4,1.2-8.7,2.7-13.1,4l-8.1,32.8,15.3-4.6,8-31.8s-.2-.7-.2-.7ZM41.5,83.2c-.3-6.6,4.5-12.3,11.1-12.7s2.2.2,3.3,0l1.5-5.8-.2-.6c-3.9-3.7-7.3-7.9-10.7-12.2l-7.7,30.3,2.8.8h0ZM52.2,72.2c-14,1.5-10.4,23.5,3.8,19.7,11.7-3.1,8.2-21-3.8-19.7ZM62.8,89.3c-.8.6-1.1,1.5-2,2l1,1.1,2.2-2-1.2-1.2h0ZM67.2,93.8c-.3.5-2.2,1.8-1.9,2.3l7,7c1.6.9,3-.8,2-2.2,0,0-7.1-7.1-7.1-7.1Z"/>
      <path class="st0" d="M57.5,24.1c14-1.5,16.1,19.7,2.7,21.3-14.4,1.7-16.5-19.8-2.7-21.3ZM57.1,26.1c-9.9,1.3-9.6,17,1,17.7,12.5.8,12.9-19.5-1-17.7Z"/>
      <path class="st0" d="M52.7,73.7c11.7-.9,12.1,17.1.7,17.2-10.9,0-11.8-16.4-.7-17.2ZM53.3,75.4c-9.2,0-9,14.2.6,13.7,8.4-.5,8.1-13.8-.6-13.7Z"/>
    </g>
  </g>
  <circle class="st1" cx="-126.5" cy="72.1" r="60.2"/>
</svg>