<?xml version="1.0" encoding="UTF-8"?>
<svg id="Layer_1" xmlns="http://www.w3.org/2000/svg" version="1.1" viewBox="0 0 120 120">
  <!-- Generator: Adobe Illustrator 30.0.0, SVG Export Plug-In . SVG Version: 2.1.1 Build 123)  -->
  <defs>
    <style>
      .st0 {
        fill: #401075;
      }

      .st1 {
        fill: #d5cee0;
      }
    </style>
  </defs>
  <circle class="st1" cx="60" cy="60" r="60.2"/>
  <g id="_7GGz1X.tif">
    <g>
      <path class="st0" d="M62.3,31.6v4.5h16c6.2,0,12.9,6,14.6,11.7.3,1,.8,4.8,1,5,.5.5,2.9,0,3.9.3,2.9.7,4.3,3.8,4.5,6.5.2,3,.4,12.3-.6,14.8-1.2,3.2-4.8,4.2-7.9,3.8-.1,9-7.6,16.9-16.8,16.8-.3,2.4,1.3,9.7-3.1,8.3-.7-.2-1.4-1.3-1.4-1.9v-6.4h-25v6.4c0,1.7-2.2,2.9-3.6,1.6s-.2-5.9-.8-7.7c-.2-.2-3-.3-3.8-.5-7.5-1.6-13-8.9-13.1-16.5-3.7.5-7.8-1.1-8.3-5.2-.4-3.3-.4-11.7,0-15,.5-4,4.7-5.6,8.3-5,0-7.6,5.3-14.5,12.7-16.4.6-.1,2.3-.6,2.8-.6h15.9l.3-.3v-3.8c-2.8-1.2-5.4-3.2-6.2-6.4-2.2-9.1,9.6-14.5,15-7,3.4,4.8.9,11.5-4.7,13h0ZM41.7,40.3c-6.2,1-10.7,5.8-11.1,12.1-.7,9,.3,19.1.3,28.1,1,5.3,5.4,9.5,10.8,10.2h37.1c5.9-1,10.4-6,10.8-11.9.6-8.6-.5-17.9,0-26.6-.6-6.2-5.3-11.2-11.5-12,0,0-36.3,0-36.3,0Z"/>
      <path class="st0" d="M70.1,53.1c9.1-1.3,12.2,10.4,4.9,13.8-6.8,3.2-13.4-4.1-9.6-10.5.9-1.5,3-3.1,4.7-3.3Z"/>
      <path class="st0" d="M46.8,53c8.8-1.5,12.4,9.9,5.2,13.7-6.5,3.5-13.3-3.4-10.1-9.9.8-1.5,3.2-3.5,4.9-3.8Z"/>
      <path class="st0" d="M70.1,79.7c-.5.5-1.6.7-2.3.8-3.9.3-11.8.4-15.6,0-2.7-.3-3.7-2.9-1.1-4.2h17.9c1.5.2,2.2,2.4,1.1,3.5Z"/>
    </g>
  </g>
</svg>