<?xml version="1.0" encoding="UTF-8"?>
<svg id="Layer_1" data-name="Layer 1" xmlns="http://www.w3.org/2000/svg" viewBox="0 0 120 120">
  <defs>
    <style>
      .cls-1 {
        fill: #764c24;
      }

      .cls-2 {
        fill: #facebe;
      }

      .cls-3 {
        fill: #2f251c;
      }

      .cls-4 {
        fill: #d0cc81;
      }

      .cls-5 {
        fill: #cbaea9;
      }

      .cls-6 {
        fill: #f9f8f6;
      }

      .cls-7 {
        fill: #d4cfcb;
      }

      .cls-8 {
        fill: #c4c0dc;
      }

      .cls-9 {
        fill: #e0e9ec;
      }

      .cls-10 {
        fill: #b3babb;
      }

      .cls-11 {
        fill: #f9bdbd;
      }

      .cls-12 {
        fill: #93706e;
      }

      .cls-13 {
        fill: #f39191;
      }

      .cls-14 {
        fill: #c66e51;
      }

      .cls-15 {
        fill: #989a9b;
      }

      .cls-16 {
        fill: #faf6f2;
      }

      .cls-17 {
        fill: #db9c6a;
      }

      .cls-18 {
        fill: #de876a;
      }

      .cls-19 {
        fill: #b64e21;
      }

      .cls-20 {
        fill: #46260e;
      }

      .cls-21 {
        fill: #b4989a;
      }

      .cls-22 {
        fill: #fcdcd4;
      }

      .cls-23 {
        fill: #130d11;
      }

      .cls-24 {
        fill: #c76b4c;
      }

      .cls-25 {
        fill: #de876b;
      }

      .cls-26 {
        fill: #faf9f8;
      }

      .cls-27 {
        fill: #db9c6b;
      }

      .cls-28 {
        fill: #d9d8de;
      }

      .cls-29 {
        fill: #410606;
      }

      .cls-30 {
        fill: #c6814d;
      }

      .cls-31 {
        fill: #be6b49;
      }

      .cls-32 {
        fill: #94553b;
      }

      .cls-33 {
        fill: #e9bcac;
      }

      .cls-34 {
        fill: #f2bf93;
      }

      .cls-35 {
        fill: #400404;
      }

      .cls-36 {
        fill: #f9faf9;
      }

      .cls-37 {
        fill: #ecbc91;
      }

      .cls-38 {
        fill: #f9cec0;
      }

      .cls-39 {
        fill: #f5d2d1;
      }

      .cls-40 {
        fill: #4a4c5b;
      }

      .cls-41 {
        fill: #916d6d;
      }

      .cls-42 {
        fill: #a55731;
      }

      .cls-43 {
        fill: #8f330b;
      }

      .cls-44 {
        fill: #5c1c14;
      }

      .cls-45 {
        fill: #f2f2f1;
      }

      .cls-46 {
        fill: #6086a2;
      }

      .cls-47 {
        fill: #faf8f4;
      }

      .cls-48 {
        fill: #4b4d5e;
      }

      .cls-49 {
        fill: #dc846b;
      }

      .cls-50 {
        fill: #71839c;
      }

      .cls-51 {
        fill: #f4f4f4;
      }

      .cls-52 {
        fill: #db866c;
      }

      .cls-53 {
        fill: #5d84a1;
      }

      .cls-54 {
        fill: #f7f9f7;
      }

      .cls-55 {
        fill: #95726e;
      }

      .cls-56 {
        fill: #f8f7f5;
      }

      .cls-57 {
        fill: #eeeced;
      }

      .cls-58 {
        fill: #f7f9f6;
      }

      .cls-59 {
        fill: #f0f6f7;
      }

      .cls-60 {
        fill: #3e312a;
      }

      .cls-61 {
        fill: #f9f4ee;
      }

      .cls-62 {
        fill: #755849;
      }

      .cls-63 {
        fill: #95543b;
      }

      .cls-64 {
        fill: #c6804c;
      }

      .cls-65 {
        fill: #ab3e0c;
      }

      .cls-66 {
        fill: #7d5246;
      }

      .cls-67 {
        fill: #ccbcca;
      }

      .cls-68 {
        fill: #410404;
      }

      .cls-69 {
        fill: #a7562f;
      }

      .cls-70 {
        fill: #f19491;
      }

      .cls-71 {
        fill: #b7d6db;
      }

      .cls-72 {
        fill: #100e0c;
      }

      .cls-73 {
        fill: #f5ae94;
      }

      .cls-74 {
        fill: #9e6832;
      }

      .cls-75 {
        fill: #c56c4d;
      }

      .cls-76 {
        fill: #723a1d;
      }

      .cls-77 {
        fill: #d7826d;
      }

      .cls-78 {
        fill: #733e2b;
      }

      .cls-79 {
        fill: #db9d6a;
      }

      .cls-80 {
        fill: #f49191;
      }

      .cls-81 {
        fill: #fcfcfb;
      }

      .cls-82 {
        fill: #100b10;
      }

      .cls-83 {
        fill: #160904;
      }

      .cls-84 {
        fill: #713a1d;
      }

      .cls-85 {
        fill: #f9e5df;
      }

      .cls-86 {
        fill: #3f0505;
      }

      .cls-87 {
        fill: #faecdd;
      }

      .cls-88 {
        fill: #f8eedf;
      }

      .cls-89 {
        fill: #d27e56;
      }

      .cls-90 {
        fill: #733e2c;
      }

      .cls-91 {
        fill: #c66b4d;
      }

      .cls-92 {
        fill: #ab6048;
      }

      .cls-93 {
        fill: #420405;
      }

      .cls-94 {
        fill: #7a281e;
      }

      .cls-95 {
        fill: #94513f;
      }

      .cls-96 {
        fill: #fcf8f6;
      }

      .cls-97 {
        fill: #d4e6e7;
      }

      .cls-98 {
        fill: #6c2f20;
      }

      .cls-99 {
        fill: #5f84a1;
      }

      .cls-100 {
        fill: #572c11;
      }

      .cls-101 {
        fill: #b7c9dc;
      }

      .cls-102 {
        fill: #faf9f9;
      }

      .cls-103 {
        fill: #8a4827;
      }

      .cls-104 {
        fill: #160a04;
      }

      .cls-105 {
        fill: #fdfdfc;
      }

      .cls-106 {
        fill: #8d3d1d;
      }

      .cls-107 {
        fill: #f8bdbd;
      }

      .cls-108 {
        fill: #400504;
      }

      .cls-109 {
        fill: #381c09;
      }

      .cls-110 {
        fill: #b3c6d4;
      }

      .cls-111 {
        fill: #b3c4d0;
      }

      .cls-112 {
        fill: #727c8a;
      }

      .cls-113 {
        fill: #834934;
      }

      .cls-114 {
        fill: #e4936b;
      }

      .cls-115 {
        fill: #400707;
      }

      .cls-116 {
        fill: #591c15;
      }

      .cls-117 {
        fill: #db856a;
      }

      .cls-118 {
        fill: #0c080f;
      }

      .cls-119 {
        fill: #f2f7f7;
      }

      .cls-120 {
        fill: #dbd0b5;
      }

      .cls-121 {
        fill: #fcdcd3;
      }

      .cls-122 {
        fill: #95553b;
      }

      .cls-123 {
        fill: #d24834;
      }

      .cls-124 {
        fill: #4b4c5c;
      }

      .cls-125 {
        fill: #b28f6e;
      }

      .cls-126 {
        fill: #ece9e8;
      }

      .cls-127 {
        fill: #d7a076;
      }

      .cls-128 {
        fill: #bc8167;
      }

      .cls-129 {
        fill: #0e090f;
      }

      .cls-130 {
        fill: #df876b;
      }

      .cls-131 {
        fill: #50555b;
      }

      .cls-132 {
        fill: #cda18d;
      }

      .cls-133 {
        fill: #94706e;
      }

      .cls-134 {
        fill: #faf7f0;
      }

      .cls-135 {
        fill: #8d6e59;
      }

      .cls-136 {
        fill: #f9cebf;
      }

      .cls-137 {
        fill: #201718;
      }

      .cls-138 {
        fill: #79291f;
      }

      .cls-139 {
        fill: #b59b9a;
      }

      .cls-140 {
        fill: #f2f8f8;
      }

      .cls-141 {
        fill: #391c08;
      }

      .cls-142 {
        fill: #c46d4e;
      }

      .cls-143 {
        fill: #f9f1eb;
      }

      .cls-144 {
        fill: #faf9f7;
      }

      .cls-145 {
        fill: #606465;
      }

      .cls-146 {
        fill: #401075;
      }

      .cls-147 {
        fill: #f2f0f0;
      }

      .cls-148 {
        fill: #7e5348;
      }

      .cls-149 {
        fill: #45250d;
      }

      .cls-150 {
        fill: #c37155;
      }

      .cls-151 {
        fill: #de886c;
      }

      .cls-152 {
        fill: #f1f8f8;
      }

      .cls-153 {
        fill: #fafaf9;
      }

      .cls-154 {
        fill: #fefefe;
      }

      .cls-155 {
        fill: #d39f94;
      }

      .cls-156 {
        fill: #f7a282;
      }

      .cls-157 {
        fill: #47260f;
      }

      .cls-158 {
        fill: #c0440c;
      }

      .cls-159 {
        fill: #eeb892;
      }

      .cls-160 {
        fill: #79281e;
      }

      .cls-161 {
        fill: #fbfbf9;
      }

      .cls-162 {
        fill: #f3ebe4;
      }

      .cls-163 {
        fill: #b0c3cb;
      }

      .cls-164 {
        fill: #c2b9bc;
      }

      .cls-165 {
        fill: #f5f5f5;
      }

      .cls-166 {
        fill: #64251d;
      }

      .cls-167 {
        fill: #8f340b;
      }

      .cls-168 {
        fill: #d24934;
      }

      .cls-169 {
        fill: #391c09;
      }

      .cls-170 {
        fill: #943407;
      }

      .cls-171 {
        fill: #c9d6dd;
      }

      .cls-172 {
        fill: #b59898;
      }

      .cls-173 {
        fill: #d68569;
      }

      .cls-174 {
        fill: #7c473d;
      }

      .cls-175 {
        fill: #6f5236;
      }

      .cls-176 {
        fill: #400506;
      }

      .cls-177 {
        fill: #f9f7f3;
      }

      .cls-178 {
        fill: #765849;
      }

      .cls-179 {
        fill: #edb6a3;
      }

      .cls-180 {
        fill: #d2cf94;
      }

      .cls-181 {
        fill: #6896a6;
      }

      .cls-182 {
        fill: #f6eee9;
      }

      .cls-183 {
        fill: #b2c4d1;
      }

      .cls-184 {
        fill: #110e0c;
      }

      .cls-185 {
        fill: #91787c;
      }

      .cls-186 {
        fill: #fbfbfb;
      }

      .cls-187 {
        fill: #927375;
      }

      .cls-188 {
        fill: #400505;
      }

      .cls-189 {
        fill: #cf6747;
      }

      .cls-190 {
        fill: #f0f1f1;
      }

      .cls-191 {
        fill: #923408;
      }

      .cls-192 {
        fill: #571310;
      }

      .cls-193 {
        fill: #4c4c5a;
      }

      .cls-194 {
        fill: #f39291;
      }

      .cls-195 {
        fill: #e5bbc6;
      }

      .cls-196 {
        fill: #b09795;
      }

      .cls-197 {
        fill: #d4cac5;
      }

      .cls-198 {
        fill: #faf8f6;
      }

      .cls-199 {
        fill: #9da6a9;
      }

      .cls-200 {
        fill: #c2755a;
      }

      .cls-201 {
        fill: #d14935;
      }

      .cls-202 {
        fill: #5f6466;
      }

      .cls-203 {
        fill: #caaa9e;
      }

      .cls-204 {
        fill: #c9d5dc;
      }

      .cls-205 {
        fill: #c7d6de;
      }

      .cls-206 {
        fill: #f4ae95;
      }

      .cls-207 {
        fill: #de866a;
      }

      .cls-208 {
        fill: #ae6349;
      }

      .cls-209 {
        fill: #d7dae3;
      }

      .cls-210 {
        fill: #e4dacb;
      }

      .cls-211 {
        fill: #fdfcfb;
      }

      .cls-212 {
        fill: #fbfaf6;
      }

      .cls-213 {
        fill: #f8f6ec;
      }
    </style>
  </defs>
  <circle class="cls-146" cx="60.03" cy="60.04" r="60.21"/>
  <g id="ycV1Xy.tif">
    <g>
      <path class="cls-101" d="M50.35,37.87c-13.23-9.52-4.8-30.56,11.44-28.22,13.8,1.99,18.21,20.11,6.88,28.22l-.23-.23c-.14-.86-.44-1.68-.8-2.47-1.59-.27-3.15-.59-4.67-.95l-.2.03c-.47-.46-.98-.88-1.53-1.26l-.14-.37c-.18-.09-.18-.19,0-.28-.17-.09-.15-.17-.01-.28,1.62-.62,2.42-2.07,2.66-3.71l.37-3.13c.03-.29.15-.43.35-.44l.21-.15c2.53.35,3.06-3.08,1.66-4.6-.36.02-.58-.08-.65-.3-.21-.23-.01-.93.28-1.03l-.11-.76c-.04-.23.03-.38.2-.45-.19-.41-.19-.72,0-.93-.08-.36-.06-.76,0-1.12-.15-1.1-.58-2.05-1.31-2.9l-.32-.05c-2.3-1.95-5.72-2.29-8.53-1.37l-.31-.08c.02.23-.06.31-.28.28v.23c-.45.3-.83.66-.99,1.2l-.22.06c.19.18.17.26-.09.28.17.36.17.64,0,.84l-.08.25c-1.66.98-1.74,3.37-1,4.96l-.13.21c.35.42.21.52-.41.3l-.43.07.04.21c-1.16,1.59-.74,4.59,1.66,4.58l.17.17c.21-.15.29.02.35.22l.17,2.02c.17,2.09.85,4.33,3.04,5.07l.18.26c.25.1.26.2,0,.28-.03.1-.06.19-.13.27-.14.15-1.88,1.63-2.01,1.62l-.19-.11c-1.23.35-2.5.66-3.82.94-.29.81-.55,1.63-.78,2.46l-.26.15Z"/>
      <path class="cls-120" d="M102.33,56.19c-1.55-.45-3.25-.73-4.86-.93.01-.26-.22-.51-.38-.7-.28-.34-.88-1.01-1.21-1.26-.14-.11-.23-.23-.28-.37-.2-.22-.38-.46-.61-.65l-.14.19c-.18-.05-.18-.13,0-.19-.06-.39-.07-.78-.05-1.18-.2-.08-.13-.18,0-.3,1.06-.66,1.62-1.72,1.69-3.17l.4-3.08.2-.13.03-.12c2.67.56,3.63-2.38,2.59-4.5-.5-1.02-1.4-.3-1.85.34l-.21-.02c-.28.05-.14-1.32-.1-1.38.04-.07.12-.1.19-.12-.1-.09-.17-.2-.17-.34l.19-2.65c.31-3.61-2.28-5.07-5.52-5.38-5.54-.54-6.58,3.12-6.47,7.85l-.18.42c.28.31.27.81,0,1.12l-.23.02c-2.57-3.01-3.11,3.72-.7,4.16.3.02.52.12.65.3.35-.21.59-.22.73-.05l.17,3.28c.24,1.74.88,2.98,2.56,3.67-.09.21-.07.46,0,.68.26.12.31.86.09,1.03-.17-.15-.21,0-.33.09-.86.74-1.63,1.59-2.48,2.34l-.21.24c-1.19.16-2.35.42-3.48.79-.25.21-.48.31-.7.28-5.37-4.69-6.42-10.58-4.58-17.29.09-.3.22-.58.37-.84,3.72-8.45,13.9-11.93,22.03-7.4,9.32,5.19,10.78,18.1,2.84,25.26Z"/>
      <path class="cls-8" d="M66.15,109.01l-.28-.12c-.76-1.09-1.74-1.98-2.93-2.69-.15-.15-.18-.25.03-.37v-.27c1.21-1.22,1.33-2.85.42-4.29,1.51-1.53,2.64-3.32,3.15-5.42l.26-.3.15-.5c.84-.68,1.12-1.89.32-2.72l-.1-.52c-.33-.08-.45-.68-.09-.75.06-.25.38-.35.6-.28-.37-3.54-2.04-7.39-5.85-8.23l-.36-.27c-.12.25-.47.19-.47-.09-.42.15-.7.09-.84-.19-.1.24-.17.24-.28,0-.06.15-.1.15-.12,0-.14.24-.7.19-.82-.09-.12.18-.26.18-.37,0-.24.27-1.21.41-1.5.19-.24.21-.4.24-.47.09l-.41.3c-3.57,1.14-5.18,4.72-5.92,8.12l.65.09c.36.04.44.26.26.64.22.32.23,1.32-.09,1.59l.14.23c-.36.63-.2,1.2.19,1.78l-.05.24.28.42c.51,2.27,1.7,4.22,3.51,5.67l-.11.3c-1.29,1.35-1.6,3.38.21,4.41l.04.23c.3.11.37.16.13.42-.97.6-1.93,1.24-2.69,2.09l-.33.1c-14.87-7.48-9.01-30.15,7.53-29.64,16.34.51,21.06,22.9,6.21,29.82Z"/>
      <path class="cls-4" d="M38.85,69.09c.2.3.42.58.65.84,4.72,6.61,3.86,15.84-2.43,21.13l-.22.08c-.68-.27-1.39-.4-2.11-.38l-.19-.16c-.69,0-1.39-.14-2.1-.46-.39-.04-.72-.14-.99-.29-.78-.44-1.64-.83-2.56-.98l-.15-.23c-.31.13-.49.07-.56-.19-.27.07-.43-.32-.19-.47l.11-.18c.67.02,1.23-.23,1.48-.87.33-.02.66.12.98.41,1.92.84,2.62-.54,2.67-2.25l.14-.04c3.08.28,1.03-3.71-.03-4.89l.07-.21.03-.24c.94-.72,1.37-2.39-.31-2.3v-.36c-.06-.08-.09-.17-.1-.28,0-.12.86-2.06.99-2.28l.23-.15c-.16-.07-.17-.13,0-.19,0-.1-.05-.22-.15-.36.12-1.64-.79-3.12-2.18-3.95l-.1-.27c-.12.23-.29.17-.28-.09-.19.16-.27.02-.35-.18-.2-.96-.88-1.59-1.68-2.1l-.03-.24c-.29.04-.41-.03-.37-.19h-.38c-.59-.28-1.22-.45-1.88-.46l-.17-.19c-.23.18-.38.18-.47,0l-.22.18c-3.06.46-5.67,2.77-6.33,5.82l-.28.27c.23.12.18.36-.09.37-.04.09,0,.16.12.22-.24.96-1.53,3.8-2.74,2.39-.51-.17-.14,1.4.1,1.59l-.1.2c.17,0,.28.01.19.19.49.22.98.45,1.46.69l.13.24.15.17c-.2.96.65,1.73,1.54,1.87l.09.2c.24.09.29.41,0,.47-.69.42-1.44,1.1-1.98,1.73-1.3,1.5-1.21,3.92,1.23,2.34.21-.06.35.04.37.26-.23,2.03,1.08,3.35,2.64,1.54l.17.06c.67.86,1.7,1.24,2.75.88l.25.11c.45.02.32,1.16-.19.84-.05.21-.21.32-.49.33-.81.08-1.74.33-2.27,1.02l-.23-.04c.01.08.03.18-.03.23-.18.17-1.82.57-2.12.42l-.16.14c-.94-.2-2.03.03-2.82.58l-.2-.07c-11.98-9.47-4.54-28.73,10.71-27.86,3.83.22,8.74,2.42,10.98,5.61Z"/>
      <path class="cls-112" d="M80.27,79c.14.24-.42.84-.65.65-.09.26-.32.37-.56.47.03.09,0,.12-.09.09-.37.68-.96,1.22-1.68,1.5.09.28-.25.44-.47.28l-7.52-8.48c-8.11,5.34-19.02,2.78-23.9-5.57-5.46-9.33-.7-21.54,9.62-24.62,15.38-4.59,27.8,12.48,18.74,25.84-.17.25-.99,1.19-.95,1.36l7.47,8.48Z"/>
      <path class="cls-195" d="M34.83,58.06c-.07.03-.17.06-.2.01-.11-.15-.78-1.41-.83-1.58l.1-.21.2-.31c1.61-.86,2.83-2.28,3.7-3.87-2.38-1.53-3.04-4.25-3.13-6.93l.17-.29c-.31-.71-.37-1.4-.19-2.15l-.23-.35c-.26-2.57-.72-5.17-2.15-7.36l-.05-.42-.27-.06c-.37-.53-.79-1.03-1.29-1.45l-.03-.27c-.14.2-.21.15-.19-.09l-.23.05c-.54-.48-1.14-.83-1.8-1.06l-.11-.21c-.02.08-.05.08-.09,0-.15-.05-.3-.04-.42.07-3.59-.87-8.26,1.56-8.62,5.42l-.22.12c.18.05.18.14,0,.19.18,1.28-1.19,2.46-2.47,2.39l.48,1.01c-.08.08-.11.16-.06.25.27-.05.55.19.47.47l1.41.62.08.22c.17.15.17.42-.09.47-.04.11-.04.21.06.3-.39.46-.36.89-.25,1.45l-.18.12.16.48c-.36,2.25-.94,5.16-2.96,6.47.16,1.95,2.47,3.09,4.09,3.84l.11.25.04.26c-.41.58-.72,1.23-1.01,1.89l-.25.1c-12.63-7.82-7.91-27.64,6.87-28.88,16.62-1.4,23.69,20.72,9.39,29.07Z"/>
      <path class="cls-1" d="M88.87,87.04l.56.65s.06.06.09.09c.08.19.22.34.37.47,1.64,1.9,3.27,3.81,4.94,5.67.05.21-.18.36-.32.5-.49.48-1.12.94-1.64,1.4l-.18.08c-4.6-5.16-9.21-10.32-13.81-15.48l.06-.21s.06-.06.09-.09c.25-.11.45-.2.56-.47.19-.17.45-.48.65-.65.23-.19.72-.75.98-.57l6.45,7.39c.4.4.76.82,1.17,1.21Z"/>
      <path class="cls-199" d="M22.96,54.42l.25.19c1.11,3.45,5.66,3.5,6.97.17l.26-.17.21-.14c.95.17,3.01.8,3.25,1.82l.93,1.78c-5.09,2.97-11.25,2.92-16.27-.19.3-.7.74-1.65,1.22-2.24-.12-.45.64-.76,1.02-.92.48-.2,1.45-.43,1.97-.45l.19.16Z"/>
      <path class="cls-74" d="M92.89,95.83c-.61.54-1.26,1.06-1.87,1.59l-.2.06c-4.53-5.18-9.07-10.37-13.61-15.55l.06-.21c.56-.5,1.11-1,1.68-1.5l13.93,15.61Z"/>
      <path class="cls-1" d="M91.02,97.42c-.17.15-1.09,1.1-1.18,1.12-.16.03-.34-.28-.46-.37l-13.37-15.24v-.19c.34-.17.55-.53.8-.75.13-.12.37-.19.47-.28l13.74,15.7Z"/>
      <path class="cls-199" d="M62.97,105.83s0,.16.1.23c1.16.82,2.42,1.65,3.08,2.95-4.46,2.08-9.33,2.03-13.74-.19.78-.96,1.82-1.67,2.87-2.32.21-.13.12-.11.03-.3.08-.22.26-.19.37,0l.19-.05,1.52,2.39c.34-.33.63-.74.88-1.23l.3-.18c.1-.2.23-.39.37-.56-.22-.21-.1-.39.19-.28.16-.09.48.17.47.37.09-.02.12,0,.09.09.16.07.23.17.19.28l.21-.04,1.13,1.3,1.31-2.05c-.19-.2-.24-.37-.13-.52.14-.17.53-.16.56.09Z"/>
      <path class="cls-199" d="M34.55,90.59l-.06.21c-.94.4-1.19,1.66-1.32,2.59l-.2.2c-3.59,1.49-7.74,1.59-11.41.28l-.19-.17c-.04-1-.24-2.14-1.06-2.79l.03-.22c.44-.2,1.85-.41,2.15-.65.31-.12.36.09.28.37.28.03.49.33.28.56.29-.02.84.66.75.93l.23-.02c.44.5.94.89,1.65.79l.18.17c-.01-.24.31-.38.47-.19,0-.33.23-.57.56-.47.03-.23.22-.23.28,0h.26c1.66,1.55,3.25-.85,3.82-2.26l.22-.07c.06-.09.26-.05.35-.03.84.1,1.89.59,2.73.78Z"/>
      <path class="cls-131" d="M68.67,37.87c-2.19,1.57-4.71,2.48-7.39,2.8l-.15-.31.05-2.39c.04-.28.16-.24.38-.11.13-.1.27-.05.42.16.35-1.28.68-2.55.99-3.81.14-.16.3-.08.47-.05,1.43.21,2.86.61,4.29.85.51.84.79,1.88.94,2.85Z"/>
      <path class="cls-131" d="M55.21,34.32l.2.05.82,4.32c.1-.19.23-.24.38-.16.09-.23.27-.44.5-.3.1.06.23,2.24.15,2.33-.18.17-1.16,0-1.39-.15-1.95-.43-3.9-1.36-5.52-2.52.36-.9.47-1.91.94-2.75,1.21-.27,2.41-.64,3.63-.88.19-.04.28.08.3.08Z"/>
      <path class="cls-113" d="M88.77,51.71l-.07-.68c2.07.46,4.05.4,6.11-.1-.03.45-.05.91.03,1.34,0,.06,0,.13,0,.19-.02.52-.93,1.85-1.27,2.33-.25.34-1.62,2.07-1.95,2.04-.55-.39-.98-.95-1.38-1.5-.49-.68-1.19-1.78-1.38-2.59-.09-.38-.1-.64-.09-1.03Z"/>
      <path class="cls-131" d="M102.33,56.19c-2.21,1.99-4.23,2.95-7.1,3.65.72-1.53,1.45-3.09,2.24-4.58.05-.1.1-.19.23-.19.27,0,.87.17,1.19.22.82.14,2.33.35,3.05.6.18.06.32.12.39.31Z"/>
      <path class="cls-154" d="M92.33,57.41v-.93c.78.29.5-.03.62-.35.04-.12.19-.11.25-.23.05-.1.05-.34.07-.35.04-.04.35.23.69-.1.32-.31.17-.68.28-.84.06-.09.63-.15.76-.37.06-.11-.13-.54.05-.74.21.1.92.16,1.03.23.28.18-.22.56-.1.7.04.05,1.07.25,1.12.53,0,.05-.35.74-.09,1.06-.08,0-.54.17-.56.19-.01,0,.09.16.05.28-.07.25-.42.5-.43.53-.04.21.14.73-.09.92-.09.08-.38-.2-.44.35-.02.14.09.34.07.47-.01.07-.14.07-.15.09-.04.08.06.18-.09.25l-.09-.28c-.72,1.07-.57.08-.86-.1-.21-.13-.46,0-.68-.09-.22.16-.54,0-.47-.28-.29.17-1.02-.65-.93-.93Z"/>
      <path class="cls-131" d="M86.06,55.16l1.68,4.49c-2.25-.48-4.36-1.68-6.08-3.18.25-.24.49-.41.82-.54,1.05-.39,2.47-.52,3.57-.77Z"/>
      <path class="cls-9" d="M20.34,90.69s.37.33.42.38c.59.69.82,1.91.8,2.8-1.69-.6-3-1.43-4.39-2.52.61-.62,2.43-.99,3.18-.65Z"/>
      <path class="cls-181" d="M92.33,57.41c.29.23.67.72.93.93l.15.13c-.04.2-.4,1.47-.48,1.6-.06.09-.12.11-.24.13-.68.02-1.48.04-2.15,0l-.19-.09c-.24-.67-.51-1.53.09-2.06.41-.35.78-.75,1.18-1.11.19.15.52.33.69.46Z"/>
      <path class="cls-9" d="M37.08,91.06c-1.09.92-2.8,1.98-4.11,2.52.04-.92.51-2.82,1.59-2.99.81-.13,1.79.15,2.52.47Z"/>
      <path class="cls-140" d="M59.79,36.37c-.32-.45.33-.38.44.11.41-.06.77.1.65.57l.7.59v.23c-.29-.05-.19.14-.2.32-.03.83.02,1.66-.09,2.48-.35.04-.72.06-1.07.09.11.39-.11.1-.14.09-.08-.03-.08-.06,0-.09-.61-.24-.42-1.29-.31-1.85l.49-1.77c-.32-.26-.47-.52-.46-.77Z"/>
      <path class="cls-119" d="M57.92,37.12c.18.14.28.37.29.71.41.94.5,1.85.27,2.75h1.4s.19.19.19.19v.09c-.21-.02-.44,0-.65,0-.18.08-.39.08-.56,0-.59-.04-.95-.16-1.48-.23-.42-.05-1.11.16-1.51-.24.18.04,1.16.24,1.22.19l-.09-2.34c-.12.08-.28.19-.37.28-.27-.28-.09-.54.54-.76l.56-.69.21.05Z"/>
      <path class="cls-152" d="M93.73,58.62c.21.17.45.39.65.56l.12.19c-.11.27-.09.48.06.66-.48.13-1.27.17-1.87.19l.56-1.87c.08.06.32.16.47.28Z"/>
      <path class="cls-59" d="M90.55,60.21c-.36-.02-1.04-.11-1.4-.19-.11-.06-.17-.18-.19-.37.16-.17.39-.27.53-.41.4-.42.56-.83.97-1.18.02.22-.26.3-.26.49,0,.4.37,1.19.35,1.66Z"/>
      <path class="cls-202" d="M95.22,59.84c-.21.05-.44.13-.65.19-.45.14-.31-.52-.19-.84.28.22.55.45.84.65Z"/>
      <path class="cls-180" d="M39.51,69.93c-.45-.13-.45-.55-.65-.84.35.16.47.58.65.84Z"/>
      <path class="cls-145" d="M88.96,59.65c.28-.06.18.14.19.37-.13-.03-.25-.08-.37-.09-.03-.04.14-.23.19-.28Z"/>
      <path class="cls-213" d="M95.88,53.29c-.1-.08-.35,0-.28-.37.09.1.3.14.28.37Z"/>
      <path class="cls-134" d="M77.09,39.18c.07-.27.06-.64.37-.84-.12.27-.15.63-.37.84Z"/>
      <rect class="cls-154" x="93.73" y="54.7" width=".19" height=".28"/>
      <path class="cls-140" d="M59.42,40.86c-.09.15-.47.15-.56,0,.18.01.38,0,.56,0Z"/>
      <path class="cls-73" d="M64.94,20.39c.06.47,0,.9-.19,1.31.25.31.19.85-.09,1.12,0,.6,0,1.2,0,1.82l-.19.15c-.02.14-.15.32-.18.52-.34,2.65-.16,5.71-3.04,6.88-.09.04-.14.17-.15.17.03.29-.61.37-.7.09,0,.07-.03.18-.08.19-.19.03-1.69.04-1.84,0l-.13-.19c-.07.29-.82.1-.79-.19-3.32-1.03-3.34-4.41-3.56-7.24-.02-.2-.18-.31-.18-.33-.31-.11-.25-1.14,0-1.31-.26-.09-.26-.28,0-.37l-.09-.65c-.3-.08-.25-.98,0-1.12-.08-.75.13-1.59.44-2.27l.22.03c.07-.18.13-.21.19-.09l.19.11c.77-.99,1.46-1.32,2.72-1.28-.26-.75-1.87-.12-2.33.3l-.2-.06c-.1.09-.13.03-.09-.19-.09-.59.14-1.44.56-1.87l.23-.11c1.21.15,2.44.19,3.69.1,2.93-.17,6.11.91,5.8,4.34l-.18.16Z"/>
      <path class="cls-158" d="M65.96,18.71c-.06.32-.17.72-.28,1.03.26.19-.25,1.08-.44,1.24-.45.41-.39-.19-.31-.59-.04-.98.08-1.42-.42-2.34-1.21-2.23-4.4-1.96-6.55-1.97-.83,0-1.75.16-2.57-.18-.28.24-.7-.25-.9-.49-.18-.21-.53-1.01-.63-1.29l.13-.17c-.11-.41-.08-.48,0-.84.96.51,2.1.88,3.24,1.05l4.19.69c2.11.39,4.42,1.46,4.54,3.87Z"/>
      <path class="cls-158" d="M64.75,12.54c.64.8,1.25,1.75,1.22,2.8l-.34-.06c-1.07-.97-2.44-1.5-3.82-1.86-2.18-.36-4.21-1.05-6.09-2.06l-.13-.32c2.74-1.13,7.04-.67,9.16,1.5Z"/>
      <path class="cls-158" d="M55.31,11.32c.5.11,1,.32,1.49.64,2.13.72,4.27,1.38,6.43,1.98,1.03.38,2.5.98,2.73,2.15.03.14.06.3.09.47,0,.31.01.63,0,.93l-.28-.15c-.85-1.69-2.6-2.45-4.39-2.72-2.1-.15-4.15-.49-6.15-1.02-.58-.14-.96-.41-1.14-.79.31-.89.52-.97,1.22-1.5Z"/>
      <path class="cls-65" d="M55.4,15.9c-.17.62-.34,1.27-.56,1.87.05.17-.06.35-.19.47.02.12-.05.3-.19.28.06.17.05.36-.09.47-.01.03-.12.12-.16.25-.2.66-.29,1.34-.49,1.99-.28,0-.34-.15-.19-.47-.25-.02-.39-.37-.19-.56-.12-.03-.22-.17-.19-.28-.16-.05-.29-.24-.37-.56-.14-.48-.4-.94-.46-1.46-.17-1.51.16-3.29,1.67-3.96.03.12.54,1.19.61,1.31.13.21.56.56.79.66Z"/>
      <path class="cls-154" d="M57.55,32.54l.19.16c-.26,1.29.05,2.19.95,2.69l.08.24c.12.08.23.13.37.09.02-.08.05-.08.09,0,.01.17-.11.33-.37.47.08.38-.56.97-.93.93-.22.23-.47.65-.72.84-.21.16-.59.07-.59.56-.08.08-.35.47-.42.47l-.12-.16-.86-4.51c.17,0,1.91-1.7,2.34-1.78Z"/>
      <path class="cls-77" d="M61.1,32.35c0,.09,0,.19,0,.28.34.66.12,2.25-.44,2.76-.25.22-1.14.68-1.33.33-.02.08-.05.08-.09,0-.03,0-.06,0-.09,0-.14.04-.26-.02-.37-.09-1.53-.65-1.22-1.64-1.22-3.08v-.28c.1.03.75.19.79.19h2.06s.67-.08.7-.09Z"/>
      <path class="cls-154" d="M62.97,34.22c.09.15.09.12.07.3-.11,1.15-.73,2.54-.87,3.72-.13.23-.54-.32-.61-.38-.21-.17-.64-.56-.79-.66-.11-.07-.23.02-.23,0-.13-.2.19-.19.19-.24.02-.46-.38-.27-.6-.32-.08-.02-.32-.8-.34-.28-.21.24-.73-.11-.47-.37-.23.02-.16-.18,0-.28.52-.08,1.29-.32,1.52-.86.16-.38.26-1.75.26-2.22.44.43,1.57,1.1,1.87,1.59Z"/>
      <path class="cls-130" d="M53.06,20.01c.09.04.18.11.28.19.11.25.12.32.19.56.08.41-.17.36-.77-.13-.42-.34-.69,1.05-.63,1.14.99-.44,1.26.07.96.97-.03.45.17.49.58.47l.14.18c.02.35-.02,1.16,0,1.31-1.35.19-2.46-.92-2.61-2.21-.08-.73.1-2.28.74-2.75l.37-.07c.48-.02.73.1.75.36Z"/>
      <path class="cls-25" d="M65.68,19.73l.75.14c1.65,1.65.88,5.55-1.96,4.91.02-.19-.02-.55,0-.79.03-.36.08-.84.18-1.17l.12.05c-.12.88,1.11.64.8-.15-.43-.82.25-1.23.94-.81-.08-1.54-.73-1.43-1.5-.28l-.27.06c.04-.42.07-.95.19-1.31,0,.19,0,.38,0,.56h.28c.06-.44.33-.81.47-1.22Z"/>
      <path class="cls-191" d="M66.06,17.49c-.02.44-.02.77-.09,1.22-.24-.67-.49-1.35-.94-1.91-1.89-2.37-7.43-1.89-10.25-3.12-.25-.11-.75-.28-.78-.58.03-.14.06-.18.09-.28,3.58,2.4,9.77.04,11.97,4.67Z"/>
      <path class="cls-170" d="M65.96,15.34c.06.03.06.06,0,.09.09.18.08.47,0,.65-.76-1.31-2.29-1.83-3.67-2.27-2.36-.76-4.91-1.02-6.99-2.5.02-.01-.05-.14.28-.28,3.08,2.26,7.59,1.51,10.38,4.3Z"/>
      <path class="cls-19" d="M66.06,15.43c-.03.08-.06.08-.09,0,0-.03,0-.06,0-.09-.13-1.16-.62-1.86-1.22-2.8.87.89,1.23,1.65,1.31,2.9Z"/>
      <path class="cls-164" d="M53.16,19.92c.1.13.05.18-.09.09-.37-.3-.65-.32-1.12-.28.62-.45,1.08.43.84-.37.24.12.27.38.37.56Z"/>
      <path class="cls-106" d="M66.06,16.56c-.15-.08-.09-.32-.09-.47,0-.21.02-.44,0-.65h.09c.02.37,0,.75,0,1.12Z"/>
      <path class="cls-31" d="M85.6,38.52c.97-1.7,1.9-3.42,2.78-5.17.05-.47.21-.67.49-.61,1.71,2.33,4.45,2.4,6.64.54.24-.11.4-.16.45.12.07.99.26,1.96.62,2.88l-.05.37c.09.26.06.35-.09.28-.07.05-.15.06-.22.02-.84-.47-1.57-.69-2.56-.47-.58.12-1.03.71-.29.65,1.16-.27,2.17-.36,3.17.4l.18-.04c-.1-.31-.07-.4.09-.28h.21c.22.49.46.95.73,1.4l-.09,1.5c.22.27-.16.88-.47,1.03l.04.3c-.62,1.24-1.46,2.3-2.33,3.33l-.02.33c2.49,5.47-5.95,8.47-7.29,2.27-.05-.96-.11-1.92-.18-2.88-.36-.54-.79-1.02-1.28-1.44l.03-.22c-.23-.17-.34-.37-.37-.65-.33-.35-.36-1.2-.09-1.59l-.27-.73.17-.21c-.01-.37,0-.75,0-1.12Z"/>
      <path class="cls-35" d="M97.75,38.62c-.47-.16-.73-.97-.93-1.4-.25-.03-.27-.33-.28-.56-.46-1.11-.71-2.15-.75-3.37-1.43,1.4-4.03,2.09-5.77.86l-1.33-1.33c-.03.58-.37,1.14-.64,1.65-.59,1.11-1.36,2.54-2.03,3.57-.12.18-.21.38-.41.48-.03-3,.01-7.15,3.51-8.22,2.32-.71,6.67-.11,8.12,2.06,1.2,1.79.57,4.24.52,6.26Z"/>
      <path class="cls-95" d="M97.56,41.05s.07.05.1.08c.05.07-.12,1.54-.15,1.62s-.07.13-.14.17c.14.11.11.27-.08.49v.89s-.2.12-.2.12c-.19,1.44-.42,4.68-1.22,5.75-.22.3-.98.76-1.01.81-.11.19.04,1.01-.02,1.29,0-.01-.09-.1-.1-.23-.02-.33.02-.66,0-.99-1.88.61-4.09.67-5.98.09,0,.19,0,.37,0,.56-.18-.12-.04-.41-.14-.57-.05-.08-.43-.17-.58-.26-2.46-1.44-2.03-4.38-2.18-6.84-.19.1-.35.1-.56.09-.46-.19-.11-.42.28-.4l.1-.7c-.1-.17-.12-.29.08-.39-.08-.02-.08-.05,0-.09.13.02.26.12.37.28.3.24,1.34,1.29,1.43,1.61.22.78,0,1.96.18,2.9,1.09,5.37,8.15,3.63,7.32-1.15-.1-.58-.55-.88-.36-1.48.1-.33.83-.94,1.1-1.33.45-.65.95-1.54,1.36-2.24.18-.25.3-.28.37-.09Z"/>
      <path class="cls-32" d="M97.09,44.41c.03-.22-.01-.86.02-1.05.02-.12.26-.4.26-.44l.21-.11c.88.42,1.13,0,.73-1.24.14-.49.83-.43,1.2-.19-.08-1.86-.79-1.46-1.74-.3l-.21-.03-.37.09c.15-.25.29-.77.47-1.03.57-.86,1.65-1.63,2.26-.34.87,1.83.35,4.54-1.96,4.81l-.86-.16Z"/>
      <path class="cls-63" d="M85.6,39.65c.01.32.08.62.09.93-.08.02-.17.03-.21-.02-1.01-1.31-1.33-1.31-1.56.47.86-.71,1.44,0,1.02.92-.05.55.17.69.69.54l.16.15c.07.5.18.14.02.82-.03.14,0,.48-.02.49-.07.07-.76-.17-.47.19-2.25-.1-2.75-2.66-2.15-4.44.56-1.67,1.56-1.07,2.43-.04Z"/>
      <path class="cls-100" d="M58.58,81.9l.04.37c-.74,3.02-1.08,6.02-1.02,9.02l-.14.34c-.1.05-.23.05-.37,0l-.19.18c-.18.01-1.77-.02-1.85-.07-.04-.03-.08-.07-.11-.11.14-1.38,0-1.5-.41-.34-.2.37-.99.38-1.08-.03-.05-.17.06-.26.21-.27.06,0-.02.14,0-.07.24-2.3.59-4.41,1.68-6.49.43-.82.97-1.84,1.76-2.32.57-.11.89-.17,1.5-.19Z"/>
      <path class="cls-100" d="M61.48,82.27c.63.16,1.14.27,1.75.54,2.97,1.35,4.43,4.95,4.6,8.04-.24.09-.49.14-.74.2l-.08.21-1.23.22c-.05.3-.03.62.03.91l-.13.16c.06.26-.01.29-.19.09-.16-.31-.24-.67-.26-1.07-.29.08-.48.03-.58-.14l-.15-.18c.21-3.07-1.15-6.08-2.95-8.56l-.08-.43Z"/>
      <path class="cls-100" d="M56.62,82.18l-.03.24c-1.8,2.43-2.88,5.4-3.05,8.42l-.2.41c-.1.19-.28.24-.56.17-.03.22-.06.3-.28.2l-.19-.09c.04-.4-.86-.31-1.12-.19.16-.67-.75-.38-1.12-.61.82-3.77,2.49-7.51,6.55-8.55Z"/>
      <path class="cls-149" d="M66.81,95.55c-.48,2.18-1.59,4.26-3.26,5.75,1.11,1.47.7,3.33-.58,4.53-.02-.02-.41.05-.56-.09-.35-.03-.84-.58-.75-.93-.25-.34-.5-.68-.75-1.03-.3.06-.42-.31-.37-.56-.49,0-.49-1.23-.09-1.4l.16-.24c2.11-.66,3.7-2.26,4.01-4.48.04-.32.18-.49.41-.51.48-.32.55-.46.19-.93-.08-.03-.08-.06,0-.09.16-.23.45-.36.86-.4.31-.17.58-.23.83-.16.05.16.02.35-.09.56Z"/>
      <path class="cls-149" d="M52.13,95.74l.09.17c-.16.5.18.51.56.48l.24.14c.34,2.57,2.25,4.29,4.7,4.94l.2.25c.3.28.57,1.46.09,1.5.02.26-.19.54-.47.47,0,.14-.02.28-.09.4-.23.36-1.36,1.94-1.57,2.05-.07.03-.14.06-.21.08-.1.06-.27.05-.37,0-.76-.36-1.42-1.15-1.49-2.01-.11-1.21.49-2.01,1.21-2.89-2.01-1.39-3.18-3.77-3.65-6.13.3-.13.9.22.75.56Z"/>
      <path class="cls-100" d="M61.01,82.18c.04.08.04.16-.02.24l1.98,3.06c1.13,1.73,1.38,3.64,1.31,5.67.06.08.12.17.2.28.02.28-.3.25-.47.09-.06.06-.18.09-.37.09-.11.27-.83.17-.93-.09.19-.13-.19-1.03-.24-1.01l-.12.9-.2.11c-.02.28-.61.32-.75.09-.11-.26-.2-.52-.23-.8-.3-2.69-.65-5.33-1.03-8-.04-.28,0-.56.05-.83.29.04.56.13.84.19Z"/>
      <path class="cls-100" d="M59.89,81.99c.29,2.36.58,4.75.88,7.16l.05,2.24c.05.1.11.2.2.32.11.25-.07.36-.28.19-.81.24-1.23.1-1.25-.41l-.39-1.02-.11,1.16c-.11.41-1.15.37-1.33.08-.08-.03-.08-.06,0-.09l.19-.24c-.22-3.04.11-6.01.82-8.98.02-.09.07-.17.12-.26s.12-.17.18-.24c.38,0,.62.06.93.09Z"/>
      <path class="cls-109" d="M61.01,82.18c.16.03.29.05.47.09,1.62,2.23,2.85,4.47,3.17,7.26.07.58.17,1.35.01,1.9-.05.18-.13.18-.19,0-.14-.04-.36.13-.37-.14-.06-.87.02-1.74-.1-2.61-.36-2.48-2.1-4.34-3.31-6.41l.33-.09Z"/>
      <path class="cls-109" d="M59.89,81.99c.09,0,.19-.01.28,0,.55,3.19,1.05,6.39,1.22,9.63,0,.27-.24.32-.37.09-.14-.04-.36.13-.37-.14-.07-1-.01-2.11-.09-3.09-.17-2.03-.66-4.05-.84-6.08-.01-.16-.1-.48.19-.42Z"/>
      <path class="cls-169" d="M58.95,81.9c-.41,1.79-.79,3.63-.93,5.47-.12,1.43-.03,2.82,0,4.25-.12,0-.25,0-.37,0-.03.13-.1.1-.19,0-.22-1.37-.05-2.86.11-4.24.21-1.84.58-3.68,1.02-5.48.12,0,.25,0,.37,0Z"/>
      <path class="cls-141" d="M57.08,82.09c-2.26,2.45-2.99,5.78-3.27,9.03l-.38.14c0,.08-.04.08-.09,0,.04-3.28,1.29-6.49,3.27-9.07.18-.05.3-.06.47-.09Z"/>
      <path class="cls-27" d="M52.69,93.68l-.14.13c-.71-.34-.78-.3-.63.5.52-.4.81-.17.85.7l.11.25c.29.06.2.49-.09.47-.13.18-.49.12-.65,0-.16-.27-.55-.36-.75-.56-.25-.25-.54-.93-.55-1.27s.23-.66.27-.97c.15-.49.85-.36,1.26-.27l.23-.11c.38-.32.41.97.09,1.12Z"/>
      <path class="cls-20" d="M52.5,91.62c.31.18.35.68.09.93-.05.11.12.38-.1.33-.57-.14-.83-.21-1.4.04.06-.47,0-1.1.09-1.59.02-.09.15-.22.09-.37.23.06,1.07.14,1.17.28.08.11.02.27.04.38Z"/>
      <path class="cls-157" d="M67.09,91.06c-.05.29.03.49.09.75.09.27.09.46,0,.56-.11.14-.31.2-.6.18-.36.13-.66.13-.9,0-.14-.15-.13-1.13-.08-1.2.04-.07,1.25-.24,1.48-.29Z"/>
      <path class="cls-67" d="M67.18,91.81c.15.6.44.7.56,1.16.18.67.02,1.24-.38,1.78-.06.09-.21.11-.28.21-.12.16-.12.44-.28.59.04-.17,0-.39.09-.56v-.22c.59-.53.87-1.6.22-2.19l.06-.21v-.56Z"/>
      <path class="cls-34" d="M25.02,75.36c-.06-.23,0-.49.17-.78.26-2.23,1.14-2.82,2.64-1.76.64.16,1.31.16,2.02,0,.14.73.35,1.29.98,1.75l-.02.23-.12.18c-.26-.18-2.47.14-2.31.51,1.15-.63,2.1-.38,3.23.1l.23-.04c.22-.22.38.06.48.28l.28,1.2c.13.23.16.42.08.57.1.16-.13.14-.28.09-.22.15-.48.08-.78-.21-1.01-1.41-2.68-1.51-3.62.02-.39.77-.19,1.99.69,2.32l.06.2c.04.07.06.16,0,.23-.61.94,1.28.95,1.87.87,1.02-.14,1.46-.8.2-1.16l-.12-.22.02-.13c.54-.32.64-.99.58-1.57l.15-.18c.15-.11.37-.08.65.09.24-.03.43,0,.57.1.04.03.04.06,0,.09.24.38.01,1.08-.19,1.5.27.09.11.39-.09.47-.33.44-.32.54-.09,1.03.06.04.15.11.14.16-.51,2.24-2.02,3.95-4.28,4.58-.04.65-.02,1.3.01,1.95l-.18.13c.02.13.15.32.19.47l.19.11s.13.76.09.82c.25.12.17.26-.09.28.09.2.09.32.01.52-.04.1-1.01,1.63-1.09,1.71-.26.25-.59.16-.64-.19-.86-.48-1.11-1.58-1.21-2.5-.23-.09-.18-.34.03-.46.46-.16.18-.67.19-.84l-.16-.16c.13-.25-.02-1.72-.13-1.87-2.1-.75-4.11-1.92-4.62-4.31-.19-.05-.27-.15-.23-.3l.11-.18c.56,0,.56-.58,0-.58l-.11-.18c.03-.16.12-.31.28-.47-.24-.1-.35-.82-.09-.93-.29-.28-.32-.53-.09-.75-.06-.27.13-.31.28-.09.32-.13.6-.13.84,0l.18.12c-.03.52.04,1.17.55,1.45l.02.21c0,.18-.15.34-.45.47-.68,1.06,3.84,1.24,2.72-.14l-.03-.24.03-.23c.68-.44.71-1.31.49-2.01l.14-.18c-.28-.35-.59-.66-.94-.91-.25-.03-.4-.13-.46-.3-.37-.23.45-.79.75-.65.24.02.34-.07.28-.28Z"/>
      <path class="cls-94" d="M31.56,69.47l.08.12c-.59,1.87.77,3.9,2.52,4.53l.1.21c-.2.93-.81,1.74-1.12,2.71l-.02.15c.35.23-.22.88-.45.41-.41-.48-.3-1.27-.58-1.8-.09-.18-.2-.18-.26-.25-.29.02-1.04-.42-1.03-.75-.59-.5-1.11-1.02-1.03-1.87-.52.18-1.08.25-1.63.18-.83-.11-1.76-1.33-2.31-.15-.35.74-.31,1.68-.83,2.4.2.18-.05.42-.28.28-.25.24-.71.4-.75.65-.14.26-.76.23-.93,0-.19,0-.4-.04-.61-.16-.15.39-.35.76-.61,1.09.11.34-.56.91-.93.84-.05.03-.19.05-.28.09.01.31-.38.42-.56.19-.01.32-.78.42-.84.09-.06.3-.76.11-.75-.19-.59-.18-1.16-.5-1.59-.93l.11-.12c2.12-.09,3.66-1.57,4.84-3.2,1.01-1.65,2.12-3.21,3.34-4.7,1.13-1.15,2.7-2.27,4.32-2.36.58.36,1.28.92,1.61,1.52.17.31.22.86.45,1Z"/>
      <path class="cls-94" d="M20.25,80.97c.24-.09.36.05.28.28.14.09.32.08.35.11.05.04.29.93.39,1.15.45.95,1.33,1.82,2.24,2.34.33.19,1.95.79,2.01.89.08.14.23,1.3.24,1.54.02.27-.09.45-.1.61-1.25.48-2.39.11-3.18-.93-.22.62-1.05,1.04-1.69.9-1.1-.25-1.19-1.76-1.12-2.67-.08-.09-1.44,1.07-2.15.33-.52-.55-.22-1.56.08-2.17.51-1.05,1.71-1.81,2.5-2.65.04-.02.08.2.14.28Z"/>
      <path class="cls-94" d="M33.43,79.94c.85,1.05,2.46,3.58,1.45,4.86-.37.47-.99.58-1.54.38.2,1.84-.98,3.2-2.84,2.33-.16-.07-.72-.52-.8-.46-.14.73-1.03.99-1.68.93-.04-.27-.09-2.12,0-2.24,1.54-.4,3.12-1.54,3.75-3.03l.54-1.56.11-.17c.34-.04.43-.3.27-.76-.2-.36.59-.57.75-.28Z"/>
      <path class="cls-160" d="M29.13,66.76l-.13.17c-3.25.92-5.02,3.68-6.67,6.37-1.26,1.9-3.16,4.11-5.63,3.84-.29-.41-.87-1.88-.04-1.97.32-.03.31.53,1,.36.64-.16,1.43-2.16,1.66-2.78,1.9-.81,3.38-2.27,4.74-3.8l2.32-2.73.33-.11c1.05.03,1.51.17,2.43.65Z"/>
      <path class="cls-94" d="M26.23,66.1c.06.05.12.11.1.17-.04.19-2.03,2.41-2.38,2.77-.74.78-3.36,3.39-4.33,3.36-.07,0-.15-.02-.22-.04.27-.72.4-1.47.76-2.18,1.08-2.1,3.67-3.98,6.06-4.08Z"/>
      <path class="cls-154" d="M28.76,88.63c.84.23,1.7.36,2.44.87.13.09.27.15.27.34-.04.05-.08.32-.15.46-.84,1.56-2.35,3.7-4.15,1.88.35-.71.77-1.4,1.27-2.1l-.06-.43c.03-.1.08-.2.09-.28l.05-.15c-.18-.34-.32-.75.23-.59Z"/>
      <path class="cls-138" d="M34.27,74.14c-1.43-.43-2.78-2.04-2.78-3.57,0-.33.01-.92.35-1.01,1.69.93,2.72,2.64,2.43,4.58Z"/>
      <path class="cls-44" d="M29.5,66.94c-.87.26-1.67.5-2.46.95-2.43,1.38-3.6,4.3-5.26,6.42-1.18,1.5-2.85,3.14-4.9,3-.07-.07-.12-.09-.19-.19.38-.14.81-.13,1.22-.23,2.99-.74,4.29-3.95,5.94-6.21,1.33-1.81,3.09-3.27,5.27-3.93.13.07.21.08.37.19Z"/>
      <path class="cls-154" d="M25.49,88.72c.02.64.11,1.13.39,1.72.12.26.88,1.39,1.1,1.42.24.04.96-1.05,1.08-1.28.18-.33.23-.58.33-.93.49.59.1.52-.13.86-.24.36-.49.76-.72,1.14-.17.27.06.37-.37.52-.07.02-.22-.03-.28,0-.29.15-.36.09-.51-.2-.22.05-.43.02-.59-.14-.45.38-.91-.13-.42-.5.1-.33,0-.5-.2-.76.2-.48.33-1.32-.41-1.14.26,1.11-.72,1.07-1.45.66-.05.45-.18.62-.53.3-.07-.12-.19-.26-.28-.37.24-.2.3-.44.78-.67.72-.35,1.53-.39,2.21-.64Z"/>
      <path class="cls-116" d="M26.7,66.1c-2.08,2.26-4.21,5.53-7.17,6.71-.16.07-.24.24-.22-.08.03-.09.04-.23.09-.37,2.69-1.2,4.69-3.71,6.59-5.89.1-.11.18-.23.23-.38.15,0,.31,0,.47,0Z"/>
      <path class="cls-49" d="M33.15,77.04c-.05.3.15.16.33.18.81.11,1.1.5.96,1.34-.07.44-.61,1.19-1.01,1.38-.17.08-.6.03-.75.28-.14.22-.24.14-.28-.09-.05-.18.07-.34.09-.47l.15-.3c.01-.81.28-1.03.79-.66.1-.7.11-.82-.56-.47l-.2-.07s0-.06,0-.09c-.2-.09-.3-.21-.28-.37.13.04.21-.07.28-.09.08-.03.25.04.33-.09.03-.04.1-.35.14-.47Z"/>
      <path class="cls-117" d="M19.22,78.44c.19.04.27.23.24.56.43-.26.73.02.89.83.19-.07.34-.07.46.01,0,.11.04.28-.02.36-.02.02-.18.05-.26.11.1.25-.08.36-.28.19-1.07-.09-2.14-1.11-1.78-2.24.17.05.59.17.75.19Z"/>
      <path class="cls-116" d="M31.84,69.56c-.7,1.73.68,3.56,2.17,4.33.13.07.31,0,.26.25,0,.06.01.13,0,.19-1.89-.45-3.56-2.98-2.71-4.86.05.03.18.04.28.09Z"/>
      <path class="cls-47" d="M20.53,81.25c-.16-.1-.18-.14-.28-.28.03-.13-.04-.37,0-.47,0-.02.22-.14.28-.19.95-.11.95,1.05,0,.93Z"/>
      <path class="cls-210" d="M28.76,88.63c-.33-.08-.13.33-.19.61-.02.08-.09.13-.09.14.11-.31-.21-.28-.27-.43-.06-.16.02-.37-.01-.5.2,0,.4.14.56.19Z"/>
      <path class="cls-71" d="M49.93,49.69c7.46-7.72,20.71-4.33,23.51,6,2.89,10.64-6.85,20.23-17.45,17.17-10.06-2.9-13.35-15.63-6.06-23.17Z"/>
      <path class="cls-175" d="M79.61,79.66c-.02.4-.22.4-.56.47.18-.16.38-.31.56-.47Z"/>
      <path class="cls-69" d="M34.83,44.88c.19,2.62.35,4.7,2.43,6.59.16.15.75.47.74.64-.93,1.74-2.3,3.32-4.1,4.18-.26,0-.3-.34-.47-.51-.37-.4-2.38-1.02-2.99-1.17-.63.14-1.54,0-2.06-.37-.07.03-.14.05-.21.01-.25-.13-.44-2.68-.36-3.13.02-.13.11-.25.2-.34l.23-.26c2.06-.56,3.38-2.23,3.82-4.27l.24-.23.14-.23c.72-.13,1.32-.42,1.81-.89.27-.53.46-.68.58,0Z"/>
      <path class="cls-69" d="M20.62,45.91l.22.2c.42,2.21,2.43,3.7,4.48,4.33l.16.24c.25.09.26.25.28.48.06.26.28,3.16-.14,3.02-.13-.15-.34-.11-.51-.05-.23.18-.53.26-.92.24-.48.16-.89.18-1.23.04-1.07.19-2.46.32-3.18,1.22-1.58-.66-3.69-1.77-4.32-3.49-.34-.92.11-.68.67-1.23,1.26-1.25,2.2-4.57,2.24-6.31l.25.04c.43.62,1.14.92,1.86,1.05l.14.21Z"/>
      <path class="cls-103" d="M30.44,32.73c-.26,1-.9,2.09-1.5,2.98-2.74,3.98-7.16,6.55-11.88,5.18l-.17.08c-.33-.46-.47-1.01-.75-1.49,1.52.25,2.47-.77,2.8-2.15,4,1.88,7.98-1.91,9.1-5.62l.25-.18c.78.13,1.56.76,2.15,1.22Z"/>
      <path class="cls-103" d="M28.2,31.51c-.35.62-.68,1.28-.98,1.99-1.62,2.9-4.99,5.25-8.28,3.62.25-1.06.17-1.51.82-2.5,1.69-2.57,5.46-4.11,8.43-3.11Z"/>
      <path class="cls-103" d="M32.22,34.6c.2.58-.34,1.6-.69,2.1l-.25.05v.34c-.59.97-1.4,1.92-2.24,2.56-.1.29-.71.81-1.03.75l-.12.29c-.4.33-1.36.89-1.84.83,0,.29-.28.38-.47.19.05.27-.18.4-.37.19-.07.33-.79.5-1.12.37-.37.45-.88.45-1.4.37-.02.08-.05.08-.09,0-.12.25-.31.36-.47.09-.14.26-.32.26-.47,0-.24.28-.83.22-1.03-.09-.02.08-.05.08-.09,0-.25.01-.37-.02-.37-.09-.31.25-1.14.09-1.31-.28-.66-.21-.98-.39-1.5-.84l.36-.12c5.8.99,10.76-3.2,12.76-8.39l.16-.1c.7.58,1.08,1.04,1.59,1.78Z"/>
      <path class="cls-69" d="M34.65,42.73c.03.45-.1.56-.4.33-.43.03-.64-.14-.63-.52-.2-.14-.32-.39-.36-.77-.2-.32-.27-.59-.2-.82l-.24-.54c-.18-1.23-.67-2.4-1.48-3.34l-.05-.33c.36-.61.81-1.47.93-2.15,1.74,2.53,2.11,5.13,2.43,8.13Z"/>
      <path class="cls-84" d="M30.63,32.82c-.44,1.42-1.35,2.94-2.25,4.13-2.48,3.29-6.89,5.42-11.03,4.47-.2-.17-.3-.24-.47-.47-.05-.28.12-.2.3-.17,5.17,1,9.03-1.24,11.81-5.52.53-.82.91-1.72,1.44-2.54.03.03.12.04.19.09Z"/>
      <path class="cls-76" d="M28.2,31.51s.06,0,.09,0c-1.04,3.61-4.5,7.31-8.6,6.31-.23-.06-.87-.16-.75-.51.01-.05-.01-.13,0-.19.38-.19.8.15,1.21.24,2.92.64,5.55-1.57,6.9-3.95.17-.3.79-1.82.88-1.88.06-.05.18-.01.26-.02Z"/>
      <path class="cls-207" d="M20.53,42.64c-.12.31-.13.66-.01,1.07l-.18.14-.16.11c-.76-.51-1.04-.37-.86.41.54-.36.84-.15.91.64.14.03.27.08.39.14.29.06.26.66,0,.75-.91-.14-1.76-.48-2.24-1.31,0-.35-.12-.61-.07-.96s.34-.62.45-.91c.33.09.04.05.05.03.05-.22.94-.1,1.14-.02,0-.13.08-.18.22-.2.14.02.31.08.37.09Z"/>
      <path class="cls-18" d="M33.62,42.54c.12.51.65.12.94.51l.09-.33c.07.71.13,1.42.19,2.15l-.19-.37c-.32,1.04-1.43,1.22-2.34,1.5-.12-.32-.06-.6.19-.84.03-.09.06-.08.09,0,.29-.1.43-.15.47-.56-.2-.18.04-.48.28-.37h.12c.5.38.54-.6.07-.65-.23-.18-.15-.88.09-1.03Z"/>
      <path class="cls-42" d="M20.16,42.54l-.05.47c-.4-.19-.69-.19-1.11-.18-.16,0-.27.23-.24-.1.04-.11-.03-.34.09-.47.45.14.85.2,1.31.28Z"/>
      <path class="cls-73" d="M25.11,54.14c.62-.23.77,0,.45.68.17.22,3.17.73,2.68-.38l.14-.21c.69.11,1.38.21,2.06.37-1.32,3.84-6.4,3.75-7.48-.19.74-.13,1.36-.31,2.15-.28Z"/>
      <path class="cls-154" d="M58.02,104.71c.26-.11.57.31.47.56.25.13.37.28.37.47.1.11.1.17,0,.19.07.14.13.23.29.25v.12c-.11.07-.14.18-.19.28-.14.17-.27.36-.37.56-.31.63-.73,1.23-1.17,1.77l-1.73-2.71c.61-.85,1.18-1.75,1.87-2.52.28.2.44.54.47,1.03Z"/>
      <path class="cls-154" d="M60.92,103.77c.25.35.5.69.75,1.03.23.32.53.6.75.93.07.11.36.47.33.56l-1.5,2.34-1.35-1.59c.01-.12-.05-.22-.19-.28-.04-.03-.06-.07-.09-.09-.25-.24-.34-.43-.28-.56.62-.64,1.09-1.29,1.4-1.96-.24-.12-.11-.68.19-.37Z"/>
      <path class="cls-58" d="M59.33,106.11c.1.05.09.18.1.28.22-.18.29.06.18.28-.19-.17-.29-.25-.47-.37-.24-.17-.28.01-.28-.37.14.01.43.1.47.19Z"/>
      <path class="cls-58" d="M58.58,107.14c.08-.17.03-.45.37-.56-.1.21-.14.44-.37.56Z"/>
      <path class="cls-58" d="M59.89,107.05l-.19-.28c.1.07.4.01.19.28Z"/>
      <path class="cls-154" d="M22.77,90.41c.03-.48.1.18.28,0,.05-.05.04-.44.15-.47.33-.08.57.23.85.27.51.06.72-.33.5-.76-.08-.15-.36.06-.28-.25.4.04.72.09,1.12,0-.1.31.23.74.19.97,0,.03-.35.16-.19.53l.19-.09c-.02.27.06.6-.05.84-.04.09-.23.2-.23.24,0,.05.2.19.28.14.03-.02.04-.34.23-.28.18.46.51.26.89.19-.17.37-.13.32.19.47-.14.06-.37.36-.56.47-.28-.28-.4-.24-.36.11l-.1.08c-1.05.14-1.41-.25-2.06-.93.08-.22.03-.39-.15-.51l-.12-.37c-.22.1-.38.08-.48-.05-.11-.18-.19-.4-.28-.56Z"/>
      <path class="cls-154" d="M23.05,90.97c.8-.32.59.05.77.35.1.16.52.17-.02.58-.32-.34-.49-.53-.75-.93Z"/>
      <path class="cls-154" d="M25.86,92.84c-.27-.69.47-.76.47-.19-.14.09-.3.16-.47.19Z"/>
      <path class="cls-94" d="M59.33,36c.07.24.33.26.47.37.08.07.65.65.66.7-.18,1.28-1.02,2.41-.38,3.69h-1.78c-.05-.38.19-.79.16-1.15-.05-.75-.54-1.7-.54-2.5.31-.32.65-.58.93-.93.2-.24.35-.3.47-.19Z"/>
      <path class="cls-130" d="M60,24.2c.09.06.47.04.53.12.15.23-.42,1.48-.71,1.57-.35.1-1.04-.6-1.24-.88-.42-.58.03-.53.56-.51-.18-1.59-.67-3.24-.1-4.82.22-.61.54-.67.84-.09-.08.59-.15,4.42.12,4.61Z"/>
      <path class="cls-105" d="M56.99,27.49c-.09-.13-.67-.83-.56-.93,1.84.03,3.77.35,5.56-.19.16,0-.34,1.09-.42,1.22-.5.26-1.44.28-2.05.28-.77,0-1.85-.07-2.53-.38Z"/>
      <path class="cls-105" d="M57.92,27.96l.19-.19c.99.08,1.99.1,2.98.06l.11.13c.29-.03.2.06.1.24-.22.39-.76.99-1.18,1.15-1.1.41-1.9-.36-2.56-1.11-.3-.34-.18-.44.37-.28Z"/>
      <path class="cls-24" d="M64.75,21.7c1.22-1.87,2-1.33,1.96.75-.2-.13-.27-.45-.56-.52-.11-.03-.54.13-.56.16-.06.09.65,1.36-.24,1.49-.77.11-.71-.14-.69-.74,0-.37.06-.75.09-1.12Z"/>
      <path class="cls-198" d="M57.36,19.73c.09.12.32.83.35,1.01.14.99-.26,2.56-1.51,2.35-.67-.11-.96-1.1-.99-1.68-.4-.91.22-2.18,1.25-2.29.35-.04.97.22.9.61Z"/>
      <path class="cls-6" d="M63.53,21.04c.12.04.12.16,0,.37-.12.86-.15,1.1-.75,1.68-.12.24-.46.17-.65.09-.15-.02-.27-.08-.37-.19-.17-.14-.24-.18-.37-.37-.04-.14-.08-.27-.19-.37-.27-.72-.31-1.65.09-2.34-.15-.42.48-.72.88-.7.8.02,1.55,1.06,1.36,1.83Z"/>
      <path class="cls-91" d="M53.81,23.38c-1.23.13-.92-.65-.75-1.49-.25-.09-.46-.15-.72-.04s-.2.49-.4.59c-.02-.54-.01-1.11.21-1.62.34-.78.7-.37,1.2-.02.14.1.2.29.19-.05.04.12.17.37.19.47.04.28,0,.8,0,1.12l.09.65c0,.12,0,.25,0,.37Z"/>
      <path class="cls-167" d="M63.99,19.26c-.21.33-.67-.48-.88-.64-.69-.53-1.05-.4-1.79-.38-.5.01-.69-.42-.19-.67.84-.41,2.62.14,2.85,1.12.03.12.06.5.01.58Z"/>
      <path class="cls-43" d="M54.93,17.96c.38-.41,1.27-.75,1.82-.75.43,0,1.05.09.87.6-.09.27-.85.12-1.15.16-.19.03-.45.13-.62.22-.38.21-.87.92-.99.97-.36.14-.3-.03-.31-.27-.13-.03-.1-.11,0-.19,0-.18.03-.36.19-.47-.03-.12.05-.29.19-.28Z"/>
      <path class="cls-200" d="M61.57,27.59c-.11.17-.07.27-.37.37-.65-.04-1.26.11-1.92.1-.45,0-.86-.11-1.35-.1-.31.02-.56-.05-.75-.19-.08-.1-.12-.18-.19-.28l2.57.19,2.01-.1Z"/>
      <path class="cls-23" d="M55.21,21.42c-1.03-1.18,1.02-3.3,2.15-2.1.08.08.38.48,0,.42-.21-.29-.67-.5-1.03-.43-.93.19-1.16,1.3-1.12,2.11Z"/>
      <path class="cls-82" d="M63.63,20.39c.1.32.07.54-.09.65-.03-1.14-1.48-2.43-2.24-1.12-.44.03-.02-.52.1-.61.91-.67,2.02.07,2.24,1.07Z"/>
      <path class="cls-88" d="M57.92,27.96c-.16,0-.31,0-.47,0l.09.28c-.17-.19-.23-.27-.37-.47l.75.19Z"/>
      <path class="cls-137" d="M63.53,21.42c.02-.12-.01-.25,0-.37.01-.14.19-.42.09-.65.07.32.25.74-.09,1.03Z"/>
      <path class="cls-179" d="M62.79,23.1s0,.24-.13.26c-.11.02-.57-.09-.71-.16.05-.04.11-.04.19,0,.23,0,.44-.01.65-.09Z"/>
      <path class="cls-114" d="M54.93,17.96c-.06.06-.15.2-.19.28-.03.08-.06.07-.09,0,.07-.19.14-.33.19-.47l.09.19Z"/>
      <path class="cls-130" d="M53.81,23.01c-.16-.13-.09-.45-.09-.65.17.13.09.45.09.65Z"/>
      <path class="cls-156" d="M54.56,18.71c0,.06,0,.13,0,.19l-.19.09c.04-.13.04-.31.09-.47.15-.18.17,0,.09.19Z"/>
      <path class="cls-61" d="M62.13,23.19c-.06,0-.12,0-.19,0-.12-.06-.13-.14-.19-.19l.37.19Z"/>
      <path class="cls-61" d="M61.38,22.63c-.12-.18-.11-.18-.19-.37.17.05.2.21.19.37Z"/>
      <path class="cls-155" d="M53.34,20.2l-.05.09c-.11-.05-.17-.23-.23-.28l.09-.09c.05.08.1.09.19.28Z"/>
      <path class="cls-89" d="M54.75,18.24c-.08.16-.06.35-.19.47,0-.08,0-.16-.09-.19.04-.13.17-.23.19-.28h.09Z"/>
      <path class="cls-162" d="M59.33,36l-.47.19c.09-.11.17-.34.37-.47.03,0,.06,0,.09,0v.28Z"/>
      <path class="cls-162" d="M59.14,35.72s-.09.08-.2.05c-.09-.03-.14-.13-.18-.14l.37.09Z"/>
      <path class="cls-122" d="M92.42,43.85l.56-.28c.25.33-.99,1.78-1.38,1.86-.54.1-1-.8-1.05-1.25-.1-.79.33-.48.38-.67.11-.45-.04-1.56,0-2.13.05-.73.29-2.14.54-2.83.14-.38.46-.65.77-.26.33.41,0,1.2,0,1.68-.04,1.27.08,2.61.19,3.88Z"/>
      <path class="cls-211" d="M89.33,47.03s-.71-1.08-.65-1.12c1.82-.04,3.69.33,5.47-.19-.1.29-.32,1.02-.51,1.22-.2.03-.35.08-.47.16l-1.96.03c-.25,0-.5,0-.75,0-.38-.03-.75-.06-1.12-.09Z"/>
      <path class="cls-78" d="M85.69,40.58c.03.55.04,1.03.09,1.59.09.18.09.3,0,.37,0,.03,0,.06,0,.09-.72.21-1.06.09-1.04-.7.01-.34.34-.78,0-.93-.55-.26-.71.22-1.03.51-.09-.38.16-1.92.53-2.04.58-.2,1.25.62,1.43,1.11Z"/>
      <path class="cls-144" d="M96.25,40.77c-.04,1.12-.88,2.63-2.06,1.59-.07-.19-.17-.33-.37-.47-.05-.1-.06-.19-.09-.28-.13-.58-.16-1.18-.09-1.78.06-.28.11-.51.28-.75-.15-.45.47-.67.85-.69,1.13-.06,1.87,1.4,1.49,2.38Z"/>
      <path class="cls-81" d="M93.26,47.12c.28-.03.2.07.11.25-.42.87-1.42,1.48-2.38,1.13-.28-.1-1.27-.91-1.37-1.15-.08-.18.1-.13.19-.14.71.05,1.44.08,2.15,0,.22,0,.44,0,.65,0,.16-.13.38-.16.65-.09Z"/>
      <path class="cls-26" d="M89.62,38.9c.05.1.06.18.09.28.27.55.27,1.18.19,1.78-.09.34-.27.73-.47,1.03-.36.56-1,.56-1.5.19-.53-.46-.62-.9-.65-1.59-.47-.98.38-2.43,1.46-2.43.41,0,1.03.32.88.74Z"/>
      <path class="cls-93" d="M87.18,36.75c.65-.56,2.09-.7,2.87-.39.39.15.71.55.25.85-.3.19-1.59-.17-2.21-.06-.49.08-1.12.76-1.38.73-.07-.13-.07-.29,0-.47.09-.29.12-.24.19-.37.09-.19.19-.28.28-.28Z"/>
      <path class="cls-68" d="M96.44,36.94c.24.01.26.34.28.56-.04.09,0,.21-.14.28-.77-.44-1.1-.73-2.05-.65-.34.03-1.94.58-1.69-.29.26-.92,3.07-.73,3.61.1Z"/>
      <path class="cls-129" d="M87.28,40.58c-.97-1.23.87-3.33,2.2-2.34.09.07.61.67.14.66-.49-.95-1.54-.6-2.02.17-.33.52-.34.91-.31,1.51Z"/>
      <path class="cls-118" d="M96.25,40.77c.01-.4,0-.74-.14-1.12-.36-1.01-1.47-1.58-2.19-.56-.26.06-.23-.15-.17-.31.27-.7,1.4-.64,1.94-.29.59.38,1.13,1.69.57,2.29Z"/>
      <path class="cls-128" d="M93.64,46.94c-.15.15-.27.09-.47.1.01.04.09.08.09.09,0,.04,0,.08-.05.09-.2,0-.41,0-.61,0-.39-.17-.96-.09-1.4-.09l2.43-.19Z"/>
      <path class="cls-143" d="M87.93,42.17c.61.29.99.26,1.5-.19-.04.06,0,.14-.15.27-.49.42-.92.28-1.35-.08Z"/>
      <path class="cls-128" d="M91.95,47.22c-.64.16-1.51.16-2.15,0,.65-.07,1.47,0,2.15,0Z"/>
      <path class="cls-143" d="M89.9,40.95c.02-.59,0-1.21-.19-1.78.38.51.33,1.22.19,1.78Z"/>
      <path class="cls-182" d="M93.73,41.61c-.25-.71-.25-1.05-.09-1.78l.09,1.78Z"/>
      <path class="cls-92" d="M96.81,37.22c-.14.04-.07.21-.09.28-.04-.12-.27-.5-.28-.56,0-.01.14-.18.09-.28.05.13.2.39.28.56Z"/>
      <path class="cls-63" d="M86.16,42.82c-.06-.04-.28-.1-.37-.28-.01-.12.01-.25,0-.37l.37.65Z"/>
      <path class="cls-128" d="M90.46,47.12c-.33,0-.66.01-.99,0-.08.01-.1-.06-.14-.09.35.05.84-.11,1.12.09Z"/>
      <path class="cls-182" d="M93.82,41.89h.12s.34.29.34.29l-.09.18c-.22-.2-.23-.2-.37-.47Z"/>
      <path class="cls-208" d="M87.18,36.75c-.07.06-.12.25-.28.28.05-.09.06-.26.1-.37l.18.09Z"/>
      <path class="cls-208" d="M86.72,37.87c-.24-.03-.03-.37,0-.47v.47Z"/>
      <path class="cls-90" d="M97.56,41.05c.07-.12.8-.88.94-.98,1.19-.8,1.21,1.13,1.21,1.91-.16-.04-.15-.28-.28-.42-.22-.25-.81-.21-.94-.04-.08.11.93,2.34-1.12,1.4,0-.05-.11-.21-.09-.4.04-.38.11-1.16.27-1.47Z"/>
      <path class="cls-34" d="M53.44,91.25c.2.02.64.26.89,0l.79-1.69c-.03.57.05,1.18,0,1.74-.01.19-.02.23-.19.32l-.03.18c.88-.1,1.76-.07,2.64.09l.1-.08c-.08-.02-.08-.06,0-.09.18-.03,1.08.04,1.12,0,.06-.07.12-1.63.23-1.87.27.48.47,1.07.66,1.59.04.11.04.35.05.37.08.08.86-.12,1.02.1v.19c1.05-.51,2.37-.37,3.31-.24l-.04-.13c-.19-.07-.2-.13,0-.19.22-.01.35-.08.47-.09.06,0,.13,0,.19,0,.28-.03.56-.02.84-.09,0,.43.01.87,0,1.31.32.24.16.69-.09.93.37.17.2.66-.19.37l-.25.03c-.81-.69-1.79-1.53-2.94-1.3-.57.12-2.28.96-1.44,1.59,1.24.93,2.37.82,3.7.24,0-.13.13-.22.37-.28-.18-.05-.18-.13,0-.19.21-.19.51,0,.65.19.18.03.17.1,0,.19.09.45.06.82-.09,1.12v.09l-.04.12c-.33.12-.38.39-.15.81-.34.62-.35,1.34-.64,2.03-.66,1.59-2.31,2.77-3.94,3.21-.1.22-.31.33-.65.32-.49.1-1.62,0-1.88-.42-2.02-.52-3.9-1.67-4.69-3.68-.22-.55-.26-1.1-.45-1.65-.04-.04-.07-.07-.07-.11-.01-.16-.03-.49.07-.55,0-.04.1-.24.09-.47-.13-.25-.4-1.17-.06-1.07l.25-.05c-.04-.26.41-.39.56-.19.24.06.24.11,0,.19-.1,0-.03.09.19.28,1.34.63,2.04.78,3.41.12.47-.23.79-.44.42-.95-1.34-1.81-3.26-.65-4.62.41l-.14-.04c-.25.08-.36-.08-.19-.28-.02-.32.03-.66,0-.98-.01-.15-.09-.13-.09-.14-.03-.31-.04-.62-.09-.93l.08-.06.02-.4c.24.15.5.07.75.09.03,0,.06,0,.09,0Z"/>
      <path class="cls-83" d="M57.08,91.62c.27,0,.46.06.56.19,0,.02.14.03.09.19-.81.11-1.68-.17-2.47-.08-.62.07-1.29.42-1.93.46.34-.55,1-.66,1.59-.75.84-.13,1.34-.04,2.15,0Z"/>
      <path class="cls-135" d="M57.46,91.62c.06,0,.12,0,.19,0v.09s0,.07,0,.09l-.56-.19c.12,0,.25,0,.37,0Z"/>
      <path class="cls-17" d="M67.18,92.37s.4.48.43.56c.22.69-.09,1.68-.71,2.06-.51.32-1.11.44-1.68.56-.1-.26-.02-.86.09-1.12l.19.07c.12.64.3-.16.35-.42.15-.42.49-.41.81-.14.23-.81-.12-.9-1.03-.27l-.22-.08c.04-.32.08-.61.09-.93.07,0,.14-.08.19-.09.35-.1,1.19-.3,1.5-.19Z"/>
      <path class="cls-17" d="M60.45,101.81c-.07.53-.19.9.09,1.4.1.4.16.82,0,1.22.08.13-.13.38-.28.37-.29.41-.64.76-1.03,1.06-.17.04-.49-.22-.28-.31q.27-.2,0,0c-.14-.01-.3-.1-.47-.28-.18-.21-.3-.3-.47-.56-.18-.45-.17-1.09,0-1.5,0-.03.07-.11.06-.21-.03-.42-.08-.86-.15-1.28,1.01.26,1.5.37,2.52.09Z"/>
      <path class="cls-212" d="M65.22,95.64c.68.05.48,1.11-.19.93-.48-.13-.49-.98.19-.93Z"/>
      <path class="cls-197" d="M60.92,103.77c-.22.02-.15.29-.19.37.1.14-.02.28-.19.28.05-.39-.27-.87,0-1.22.1.17.23.27.37.56Z"/>
      <path class="cls-177" d="M61.66,104.8c-.45-.13-.29-.37-.39-.54-.08-.14-.16-.08-.35-.49.2,0,.62.85.75,1.03Z"/>
      <path class="cls-177" d="M52.78,95.74c0,.2.36.27,0,.65-.56.59-1.04-.32-.65-.65.16-.14.48-.12.65,0Z"/>
      <path class="cls-7" d="M58.02,104.71c-.21-.32-.42-.64-.47-1.03.15-.17.25-.37.47-.47,0,.04.11.21.1.42,0,.38-.12.71-.1,1.08Z"/>
      <path class="cls-104" d="M62.13,91.53c.18-.26.39-.26.56,0,.24,0,.65.05.93.09.13-.06.37-.06.37.09.17.05.54-.01.47.28-.76.1-1.54-.15-2.29-.09-.69.05-1.33.42-2.01.47-.17-.16.45-.41.56-.47.09-.05.25-.18.28-.19.05-.02.29-.08.37-.09.2-.05.54-.09.75-.09Z"/>
      <path class="cls-37" d="M62.13,91.53l.23-1.78c.16.51.48,1.04.59,1.56.06.3-.03.21-.26.21-.19,0-.38,0-.56,0Z"/>
      <path class="cls-125" d="M64,91.53v.19c-.12-.03-.26-.08-.37-.09.07-.14.25-.09.37-.09Z"/>
      <path class="cls-30" d="M52.69,93.68s.18.26.19.28c.1.03.17.1.19.19-.05.02-.28.12-.29.15.09.33.09.64.1.97-.48-.14-.11-1.27-.75-.89-.2.12-.08.47-.28.51-.05-.33-.41-1.36.06-1.49.09-.03.7.21.78.27Z"/>
      <path class="cls-168" d="M29.13,82.09c-.69,1.32-1.93,2.09-3.43,1.51-.31-.12-1.51-.93-1.62-1.19-.08-.2.13-.13.23-.14,1.08-.1,1.46-.69,2.87-.54.72.08,1.23.52,1.94.35Z"/>
      <path class="cls-13" d="M24.27,79.75c.35-.13.5-.06.47.19.39.23.63.6.27.97-.76.8-3.71.5-3.12-.69.06-.12.46-.31.61-.37-.07-.35.34-.3.56-.19,0-.04,0-.09.02-.13.03-.06,1.22-.06,1.19.22Z"/>
      <path class="cls-13" d="M30.35,79.75c.13-.14.33-.21.37,0,.78.15,1.64.76.65,1.35-.6.35-2.14.36-2.7-.09-.43-.35-.32-.7.09-.98.02-.34.21-.36.47-.19.18-.19.93-.29,1.12-.09Z"/>
      <path class="cls-29" d="M32.4,77.69c.11.04.21.14.37.09.04.12-.08.22-.09.28-.44.24-.83.03-1.22-.19-.24.07-.4-.15-.37-.37-.12.04-.22-.16-.28-.28-.14-.01-.42-.1-.37-.28l-.2.1c-.56-.26-1-.01-1.48.29l-.2-.11c-.18.33-.37.42-.56.28.17-1.23,1.9-1.64,2.84-1.01.67.44.66.89,1.56,1.2Z"/>
      <path class="cls-115" d="M23.99,76.29c.8.1,1.14.47,1.4,1.22-.11.24-.27.18-.47-.19-.05.09-.15.03-.28-.19h-.41c-.53-.31-1.08-.24-1.65.19-.07.16-.16.26-.28.28.09.27-.33.68-.56.47-.24.11-.61.15-.84,0,.32-.18.67-.62.93-.84l.39-.62c.2-.22.55-.53.83-.31.23-.05.68-.03.93,0Z"/>
      <path class="cls-52" d="M26.91,80.29c.04.08.45.2.35.52-.28.26-1.56.61-1.58.01-.01-.34.37-.41.51-.61.45-.67.4-2.36.52-3.17.14.04.18.48.18.61.03.45-.08,2.46.02,2.64Z"/>
      <path class="cls-166" d="M30.81,74.8c.37.32.62.25,1.03.75-.06.56-1.02-.1-1.36-.18-1.11-.27-1.49.15-2.47.46.35-1.19,1.82-1.08,2.8-1.03Z"/>
      <path class="cls-153" d="M29.04,79.66c.2.04.27.1.19.19-.16.05-.32.09-.47.19-.96-.1-1.41-1.78-.94-2.47.07-.1.17-.04.2-.06.18-.1.38-.19.56-.28l.11.23c-.33.71-.27,1.43.36,1.95v.25Z"/>
      <path class="cls-75" d="M20.06,78.35c.33.04.57.23.65.56.05.34.11.56.09.93-.37.22-.57.31-.75-.14-.13-.33.03-.87-.5-.52-.16.1-.07.37-.25.38l-.09-1.12c.32.03.55-.03.84-.09Z"/>
      <path class="cls-36" d="M22.4,77.79l.19.11c-.1.64.06,1.16.47,1.54v.22s-.49.16-.56.19c-.69-.24-.81-1.14-.75-1.78.09-.04.45-.37.56-.47.16-.18.14,0,.09.19Z"/>
      <path class="cls-56" d="M25.39,77.51c.31.89.26,1.95-.65,2.43-.02-.01-.44-.18-.47-.19l.04-.23c.78-.46.67-1.34.53-2.1l.09-.1c.14.09.3.16.47.19Z"/>
      <path class="cls-142" d="M32.68,78.16c.13-.18.82-.4.93-.28s0,1.11-.09,1.31c-.18,0-.09-.28-.25-.38-.07-.05-.37-.12-.4-.09-.04.04,0,.89-.37.94.08-.49.11-1,.19-1.5Z"/>
      <path class="cls-54" d="M31.47,77.88c.16.52-.02,1.84-.75,1.87-.11-.02-.25,0-.37,0-.17-.1-.08-.15.09-.19l.02-.22c.46-.31.52-1.04.4-1.56l.14-.19c-.1-.13-.06-.18.09-.09.1.11.31.18.37.37Z"/>
      <path class="cls-16" d="M32.68,80.22c.58.36.14,1.07-.37.93s-.5-.96.09-1.03c.08,0,.21.05.28.09Z"/>
      <path class="cls-173" d="M20.72,78.91c-.18-.24-.69-.29-.65-.56.2-.04.37-.1.56-.19.02.25.06.5.09.75Z"/>
      <path class="cls-98" d="M25.02,75.36c.21.06.2.28.19.47-.18.02-.36-.03-.47-.19.05-.05.27-.26.28-.28Z"/>
      <path class="cls-159" d="M23.05,76.29c-.41.08-.88.65-1.22.93.37-.7.23-1.88,1.22-.93Z"/>
      <path class="cls-131" d="M61.57,48.15c1.15.16,2.3.93,2.65,2.08.27.89.14,2.08.06,3.02-.04.47-.11.98-.19,1.45,1.09-1.24,1.79-.51,1.87.88.07,1.31-.88,2.58-2.25,2.01-.18,1.16-.08,3.2-.89,4.11-.15.17-.56.37-.58.4-.04.06-.04.88-.02.92,0,.01.12-.11.28.03.42.37,1.15,1.57,1.59,1.78.77.37,2.48.23,3.22.71.64.41,1.09,1.98,1.26,2.71h-16.64c.24-.75.89-2.19,1.54-2.62.74-.48,2.22-.42,2.94-.8.11-.06,1.59-1.53,1.64-1.63.08-.19.09-.75,0-.93-.08-.16-.59-.35-.8-.51-.25-.2-.62-.69-.75-.98-.24.08-.27,0-.09-.19,1.6-2.52,3.03-5.13,4.28-7.82.54-1.38,1.12-2.9.74-4.38l.12-.23Z"/>
      <path class="cls-97" d="M61.48,48.06l-.25.15c-2.83-.59-4.78.58-5.07,3.53l-.2.11c.07.02.18.05.19.11.03.23.04,1.96,0,2.1l-.19.13c.39-.14.28.38-.12.3-1.79-1.81-1.94,2.35-.52,2.7.39-.02.72.04.99.18.1.12.29,3,.22,3.14-.02.04-.06.06-.11.09.02.06.07.12.09.19-1.13,1.48-2.11,3.14-3.55,4.35-3.22,2.72-5.25-.78-5.69-3.76-.81-5.5,1.96-11.01,6.9-13.54,1.95-1,6.03-2.24,7.29.24Z"/>
      <path class="cls-15" d="M61.48,48.06s.09.08.09.09c.89,2.26-1.48,6.45-2.6,8.48-.66,1.19-1.45,2.56-2.21,3.68-.09.13-.1.29-.33.28-.17-.57-.17-3.06-.28-3.18-.03-.03-.59.02-.77-.02-1.91-.39-1.4-5.14.54-3.06.29.02.05-.1.05-.14v-2.34c0-.24.16-.9.23-1.17.72-2.76,2.74-3.03,5.28-2.62Z"/>
      <path class="cls-73" d="M25.02,45.35v-.23c.67-.51,1.12-1.31,1.13-2.16.06-.34,1.38-.27,1.5-.14.1.71.27,1.39.78,1.93l-.05.22c-.35,1.58,2.36,1.46,3.18.75.02-.28.7-.78.93-.56-.06.28-.13.56-.19.84-.52,2.44-1.77,4.12-4.3,4.77-.04.09-.09.19-.18.23-.4.18-2.09.12-2.35-.32-2.21-.58-4.58-2.34-4.86-4.77-.03-.24.02-.51,0-.75-.29-.05-.26-.67,0-.75.18-.13.95.66,1.04.81v.22c.47,1.09,2.97,1.06,3.36-.09Z"/>
      <path class="cls-130" d="M28.01,50.77c-.06,1.12,0,2.09.23,3.19.03.13.13.23.14.27.12.53.22.79-.37.98s-1.45.09-2.08-.08c-.9-.24-.53-.26-.36-1-.15,0-.31,0-.47,0,.09-.15.35-.05.47-.14.22-.15.07-2.87-.1-3.32.81.21,1.71.3,2.52.09Z"/>
      <path class="cls-87" d="M30.44,39.74c.1-.15.35-.1.47,0,.27-.31.94.05,1.28.24.43.25.77.45.87.97.29.4.53,1.09.56,1.59.02.39-.02.65-.09,1.03.28.09.11.7-.19.65-.01.02-.22.29-.28.37.06.25-.21.63-.47.56-.03,0-.07,0-.09,0-.11.02-.65.48-.93.56-.52.53-1.66.32-2.31.04-.34-.14-.94-.4-.87-.79-.49-.49-.91-1.35-.84-2.06h-1.22c.05.91-.56,1.94-1.31,2.43-.11.54-1.16.66-1.67.67s-1.54-.04-1.7-.58c-.37-.22-.73-.72-1.03-1.03-.25,0-.37-.34-.28-.56,0-.22-.19-1.11-.09-1.22.02-.02.21.01.28,0,.03,0,.06,0,.09,0,.31.11.44.95.28,1.22l.23.04c.23.44.59.82,1.04,1.04-.04.1-.03.18.05.23l.17-.14c.84.27,1.63.18,2.35-.24v-.13c.62-.35,1.15-1.31.83-2.02l.1-.19c-.15-.3-.18-.54-.09-.75.15-.07.34-.13.47-.19.19-.12.31-.01.36.31-.05.53.27.69.96.5.13-.71.38-1.58,1.11-1.84-.13-.33.49-.57.78-.68.32-.12.94-.27,1.18-.07Z"/>
      <path class="cls-73" d="M33.06,40.95c-.44-.61-1.41-1.14-2.15-1.22-.14-.04-.26-.1-.37-.19-.43.1-.87.18-1.34.24l-.16-.15c-.16-.03-.3.1-.07-.12.96-.89,1.64-1.64,2.32-2.78,1.08,1.12,1.68,2.66,1.78,4.21Z"/>
      <path class="cls-206" d="M28.01,40.39c.21-.03.37,0,.47.09-.5.47-.94,1.36-.94,2.06-.19-.03-1.17.04-1.21,0-.04-.04-.05-.86-.28-1.03.64-.32,1.36-.75,1.96-1.12Z"/>
      <path class="cls-161" d="M25.2,41.89c.26-.02.55.31.47.56.49.73-.07,1.77-.66,2.29-.08.07-.25.03-.27.05-.24.12-.28.05-.19-.19v-.21c.36-.27.53-.75.56-1.2s-.06-.75-.47-.75c-.04.28-.29.25-.37,0-.21.18-.31.04-.19-.19.35-.11.78-.24,1.12-.37Z"/>
      <path class="cls-172" d="M24.27,42.45c.04.06.1.13.07.18-.05.09-.91,1.22-.98,1.29l-.21.02c-.03.08-.06.08-.09,0-.41-.07-.35-.82-.27-1.15l-.11-.15c.47-.12.93-.23,1.4-.37l.19.19Z"/>
      <path class="cls-192" d="M30.53,39.55c.2.1.08.13-.09.19-.62.01-1.51.32-1.96.75-.24.05-.53.24-.47-.09.33-.21.51-.58,1.03-.75.4-.13,1.07-.13,1.5-.09Z"/>
      <path class="cls-136" d="M21.65,42.73c.2.12.22.36,0,.47.04.29-.48.98-.75.65-.18-.43-.18-.78-.28-1.22.34.04.69.09,1.03.09Z"/>
      <path class="cls-102" d="M22.59,42.64c.12.16.15.39.09.68.11.32.17.63.19.91.08.03.08.06,0,.09.07.26-.02.31-.19.09-.45.38-.94-.47-.56-.75-.28-.16-.28-.8,0-.93.08,0,.28-.08.47-.09Z"/>
      <path class="cls-171" d="M22.68,42.64c.12,0,.25,0,.37,0-.24.44-.12.85,0,1.31.23.15.06.37-.19.28-.38-.44-.47-1.05-.28-1.59.03,0,.06,0,.09,0Z"/>
      <path class="cls-196" d="M22.12,42.73c.02.3-.03.64,0,.93-.28.32-.76-.18-.47-.47-.04-.13-.08-.34,0-.47.16,0,.31,0,.47,0Z"/>
      <path class="cls-55" d="M25.67,42.45c-.09-.13-.41-.33-.47-.56.13-.05.25-.13.37-.19.11.21.33.55.09.75Z"/>
      <path class="cls-24" d="M20.34,43.85c.16.13.25.37.28.56.03.23-.02.51,0,.75-.6.33-.7-.29-.65-.75-.14,0-.35-.04-.47.04-.07.05-.08.53-.27.33-.08-.09-.17-1.15,0-1.27.22-.15.95.19,1.13.33Z"/>
      <path class="cls-14" d="M33.52,43.57c.69-.42.57.98.19,1.22.06-.46-.37-.25-.38-.56.07-.14.15-.49.19-.65Z"/>
      <path class="cls-150" d="M32.59,45.16c.14-.21.32-.35.47-.56.19.09.06.46-.04.56-.23.22-.34,0-.42,0Z"/>
      <path class="cls-177" d="M60.73,104.15l.13.18c-.56.56-.85,1.33-1.53,1.78-.1-.05-.35-.02-.47-.19,0-.06,0-.12,0-.19.28.21.55.13.81-.23l.59-.7c.08-.12.17-.2.28-.37.06-.09.14-.19.19-.28Z"/>
      <path class="cls-127" d="M60.26,104.8c-.15.21-.24.43-.44.64s-.43.37-.64.57c-.09-.11-.23-.18-.33-.27-.12-.11-.26-.34-.37-.47.17.02.35.17.47.28-.06-.15.12-.32.28-.28v.37s-.27-.08-.28-.09c0,0-.03.12.06.19.36.28.92-.81,1.25-.94Z"/>
      <path class="cls-154" d="M24.46,92.18c-.38-.09-.22-.5.05-.47s-.1.4-.05.47Z"/>
      <path class="cls-35" d="M56.43,20.3c-.04-.5.17-.42.53-.14.72.56.33,2.93-.81,2.3-.6-.33-.92-2.13.09-2.06.05-.03.11-.04.19-.09Z"/>
      <path class="cls-178" d="M56.24,20.39c-.13.08-.34.09-.38.15-.33.46-.13,1.78.56,1.86.89.11,1.05-1.78.29-2.25-.24-.15-.17.07-.28.14.12-.41-.29-.23-.37-.47,1.26-.37,1.62,1.2,1.26,2.15-.47,1.24-1.59.77-1.78-.37-.09-.57-.11-1.42.71-1.22Z"/>
      <path class="cls-108" d="M62.22,20.3c.02-.52.49-.05.67.24.43.72.07,2.49-.93,2.07-.67-.28-1.03-2.3.07-2.12.11-.06.16-.17.19-.19Z"/>
      <path class="cls-62" d="M62.79,22.63c-.09.12-.23.16-.37.19-1.08.09-1.21-1.07-1.12-1.92.06-.59.23-.41.75-.42-.19.1-.43.07-.47.15-.43.72.29,2.5,1.09,1.63.51-.56.39-1.62-.23-2.02-.08-.03-.13.02-.19.06l-.37-.37c1.46-.37,1.66,1.82.93,2.71Z"/>
      <path class="cls-61" d="M62.79,22.63s-.03.11-.09.14c-.1.06-.18.04-.28.05l.37-.19Z"/>
      <path class="cls-188" d="M94.94,39.46c.09-.22.3-.14.44,0,.72.73.39,3.02-.81,2.57-.7-.27-1.1-2.48.09-2.29.13-.06.22-.15.28-.28Z"/>
      <path class="cls-66" d="M93.82,40.77v-.47c.02-.08-.02-.2.02-.3.15-.35.5-.25.82-.26-.18.09-.43.08-.48.15-.4.55-.09,2.16.8,2,.76-.13.81-1.88.3-2.31-.11-.1-.26-.07-.35-.12-.16-.08-.29-.18-.47-.23,1.73-.8,1.9,2.94.41,3.03-.85.06-1.01-.87-1.07-1.49Z"/>
      <path class="cls-182" d="M93.82,40.77c-.02-.24-.08-.11,0-.47v.47Z"/>
      <path class="cls-108" d="M88.03,39.55c.3-.03.75.06.65-.37.32-.21.59.22.73.5.71,1.34-.78,3.15-1.52,1.59-.22-.48-.4-1.44.13-1.71Z"/>
      <path class="cls-148" d="M89.71,40.11c.07.21.07.44,0,.65-.1.4-.26.82-.56,1.12-.26.15-.55.16-.84.09-.64-.32-.93-1.8-.57-2.38.07-.11.2-.04.29-.05-.77,1.01.53,3.24,1.26,1.59.36-.82.13-1.54-.61-1.96-.15-.09-.41-.08-.47-.28.93-.29,1.3.44,1.5,1.21Z"/>
      <path class="cls-143" d="M89.15,41.89c-.28.28-.5.27-.84.09l.84-.09Z"/>
      <path class="cls-143" d="M89.71,40.77v-.65c.02.08.11.12.11.33s-.08.25-.11.33Z"/>
      <path class="cls-80" d="M61.73,95.94c.71-.12,2.42-.01,2.45.97.04,1.21-2.97,1.46-3.48.29-.28-.66.46-1.17,1.03-1.26Z"/>
      <path class="cls-80" d="M55.19,95.76c.54-.08,1.97.08,2.15.7.54,1.82-3.95,1.77-3.4.02.12-.38.87-.66,1.24-.72Z"/>
      <path class="cls-201" d="M56.62,98.17c-.1-.19.02-.17.19-.09.65.36,1.11.07,1.71.21.21.05.34.29.58.27.17-.02.25-.21.4-.26.42-.15.86-.08,1.28-.12.17-.02.8-.35.71.05-.01.06-.81.84-.93.94-.53.43-1.25.93-1.97.75-.57-.15-1.72-1.21-1.96-1.73Z"/>
      <path class="cls-72" d="M53.81,94.43c-.12-.13-.07-.18.09-.09.23-.19.65,0,.75.28.19-.25.33-.14.47.09.15-.15.43-.18.82-.09.27-.11.46-.12.58,0,.05-.27.39-.4.56-.19l.02-.22c.87-.22-.28-.84-.71-.97l-.06-.22c-.2.11-.43.15-.67.11-.29.13-.5.13-.64-.01-.13.27-.25.33-.37.19-.16.35-.66.84-1.03.65-.23.12-.38.12-.56.19h-.28s.1-.17.09-.19c1.34-1.1,2.83-2.25,4.49-.89.79.64.84,1.12-.07,1.62-1.37.76-2.28.62-3.49-.26Z"/>
      <path class="cls-184" d="M65.22,93.96c.41-.14.46.38.09.28-.26.04-.44-.09-.65-.19-.33.17-1.01-.3-1.03-.65-.33-.03-.85-.13-.93-.47-.15.21-.56.33-.75.09-.26.26-.47.32-.65.19-.14.28-.34.52-.6.72.24.09.38.23.41.4.04-.05.08-.01.09.09.16-.19.32-.13.47.19.22-.2,1.03-.02,1.22.19.25-.31.47-.37.65-.19,0-.27.42-.43.56-.19.2-.08.26-.04.19.09-1.26.87-2.33.86-3.62.02-.93-.6-.28-1.32.47-1.72,1.68-.9,2.85.08,4.08,1.14Z"/>
      <path class="cls-79" d="M58.95,94.71c.33-.23.65,1.14.66,1.35.02.54-.22,1.51-.95.94-.37-.29-.31-.85-.21-1.25.03-.12.45-1.01.5-1.04Z"/>
      <path class="cls-64" d="M65.4,93.59c1.18-.8,1.85-.8,1.31.84-.17,0-.07-.26-.22-.38-.61-.51-.45.65-.71.81-.37.22-.47-.15-.47-.43,0-.06,0-.12,0-.19,0-.14.23,0-.09-.28.3.06.16-.15.19-.37Z"/>
      <path class="cls-51" d="M64.65,94.05c0,.06.01.14,0,.19-.19.11-.37.18-.56.19-.16.06-.39.13-.56.19-.33-.08-.16-1.01,0-1.22h.09c.35.21.65.48,1.03.65Z"/>
      <path class="cls-165" d="M54.65,93.3c.11.17.18.89.15,1.11l-.15.2c-.25-.07-.52-.15-.75-.28-.09.06-.28-.07-.28-.19.02-.02-.01-.13,0-.19.37-.19.64-.45,1.03-.65Z"/>
      <path class="cls-60" d="M64.65,94.24c-.06.18-.25.2-.37.28l-.19-.09c.13-.05.29-.28.56-.19Z"/>
      <path class="cls-3" d="M53.62,94.15c.12.02.2.14.28.19l-.09.09c-.11-.08-.29-.1-.37-.23,0-.1.16-.02.19-.05Z"/>
      <path class="cls-189" d="M56.8,98.07l-.19.09c-.04-.08-.15-.12-.09-.28.03-.04.23.16.28.19Z"/>
      <path class="cls-96" d="M25.3,82.65c.83-.12,1.86-.57,2.62-.05-.65.62-1.97.71-2.62.05Z"/>
      <path class="cls-99" d="M24.64,77.13c.04.24-.31.37-.47.19-.36-.04-.68.04-.94.23-1.14,1.67,1.59,2.61,1.32.24-.09-.19-.06-.41.09-.65.18.09.19.13.28.19.37.85.29,2.02-.65,2.43-.08-.02-1.13-.11-1.22-.09-.75-.47-.61-1.13-.65-1.87-.01-.17.05-.32.19-.47.01-.01-.02-.12.03-.16.76-.69,1.26-.42,2.03-.03Z"/>
      <path class="cls-50" d="M30.16,79.56c.09-.22.19-.22.28,0-.03.03-.06.14-.09.19-.47-.04-.64-.06-1.12.09-.06-.06-.12-.13-.19-.19.16-.24.82-.15,1.12-.09Z"/>
      <path class="cls-53" d="M30.44,76.95c.14.14.05.24-.28.28l-.21.13c-1.35-.25-1.41,1.99-.12,1.87l.14.16c.26-.09.3-.07.19.19-.38.02-.74.14-1.12.09-.87-.72-.93-1.41-.47-2.43.74-.38.99-.7,1.87-.28Z"/>
      <path class="cls-46" d="M30.81,77.23c.11.14.17.26.19.37.19.61.12,1.29-.28,1.8-.09.12-.22.11-.28.16-.09,0-.19,0-.28,0l-.19-.19v-.13c.59-.44.58-.89.47-1.56.01-.19-.08-.32-.28-.37-.08-.03-.08-.06,0-.09l.28-.28c.28.13.21.15.37.28Z"/>
      <path class="cls-28" d="M31.09,77.51l-.09.09c-.02-.06-.23-.21-.19-.37.14.11.17.16.28.28Z"/>
      <path class="cls-209" d="M22.4,77.79c0-.08,0-.16-.09-.19.09-.08.17-.18.28-.28l-.19.47Z"/>
      <path class="cls-123" d="M26.79,47.12c.26-.8,1.26-.25,1.73.1l.61.14c-.32.19-.47.51-.75.75-1.41,1.19-2.88.59-3.83-.79.9.04,1.45-1.14,2.24-.19Z"/>
      <path class="cls-194" d="M31.56,45.72c.19.05-.16.3-.19.32-.72.44-1.88.48-2.63.12-.46-.22-.86-.83-.35-1.19.8.8,2.1,1.06,3.18.75Z"/>
      <path class="cls-70" d="M21.65,45.44c.95.57,2.45.51,3.37-.09.19.1.09.29,0,.43-.41.7-2.23.75-2.88.44-.14-.07-.78-.55-.49-.77Z"/>
      <path class="cls-151" d="M25.67,45.16c.1-.1.88.17,1.08.18.35,0,1.47-.36.88.43-.62.83-1.87.37-1.96-.61Z"/>
      <path class="cls-186" d="M30.25,41.24c.41-.03.59-.02.93.24.25.19.67.61.47.88.38.03.31,1,.19,1.31.27.36-.22,1.26-.75.93-.15.2-.21.15-.19-.09l-.05-.24c.29-.37.45-.8.36-1.26l.16-.18-.2-.06c.01-.25-.11-.35-.36-.31-.12.49-1.29,0-.84-.37.02-.37-.1-.34-.47-.19-.53.21-.74.81-.76,1.33l-.17.26c.22.11.52.69.47.93.24.16.03.39-.19.19-.07-.06-.24-.05-.42-.29-.4-.53-.54-1.26-.24-1.86-.14-.33.57-.93.87-1.12.26-.16,1.04-.44,1.19-.1Z"/>
      <path class="cls-2" d="M32.68,41.33c.13.19.31.44.37.65-.03.3-.05.59-.06.88l-.12.05c.07.02.13.05.13.11-.03.45-.21.89-.41,1.29-.29.36-.47.63-.93.84-.31-.13-.49-.32-.56-.56.52.03.58-.59.75-.93.22-.49.24-.95.06-1.41l.13-.18c-.18.06-.21-.04-.09-.19-.04-.34.44-1,.75-.56Z"/>
      <path class="cls-11" d="M24.27,44.51c.11-.22.31-.18.28.09.06.03.13.14.19.19-.01.01,0,.17-.21.3-.57.39-1.7.32-2.31.07-.45-.28.06-.81.47-.75.05-.03.15-.02.19-.09.14-.15.37-.14.69.03.3,0,.54.05.71.15Z"/>
      <path class="cls-22" d="M22.12,43.67c.04.33.16.8.56.75-.14.08-.67.56-.47.75-.56-.22-1.07-.75-1.31-1.31.33-.04.43-.52.75-.65.08.25.17.43.47.47Z"/>
      <path class="cls-107" d="M30.16,44.41c.44-.22.69-.19.75.09.06.02.12.07.19.09.21.09.68.32.56.56-.65.3-1.49.27-2.15,0-.39-.23.11-.78.47-.75.02-.19.12-.18.19,0Z"/>
      <path class="cls-12" d="M30.72,40.95c.21.41-.13.35-.47.28-.27-.03-.85.13-1.09.26-.18.1-.88.79-.96.95l-.19-.05c.08-.32.15-.64.38-.89.21-.34.52-.62.9-.74.34-.11,1.32-.21,1.44.18Z"/>
      <path class="cls-38" d="M30.72,40.21c.21.03.37.09.47.19.08.03.08.06,0,.09.22.2-.13.55-.37.47-.02.08-.06.08-.09,0-.79-.17-1.75-.11-2.34.56.33-.9,1.44-1.33,2.34-1.31Z"/>
      <path class="cls-121" d="M31.84,40.58c.46.27.55.32.84.75-.34-.21-.45.45-.75.56-.22-.04-.43-.19-.62-.46-.27-.12-.44-.28-.5-.48.06-.16.33-.35.37-.47.2-.05.42-.02.65.09Z"/>
      <path class="cls-39" d="M29.97,44.41c-.14.28-.52.39-.47.75-.53-.22-.42-.34-.65-.56.09,0,.17-.18.19-.19-.02-.26.17-.29.56-.09.07-.28.37-.17.37.09Z"/>
      <path class="cls-33" d="M33.15,43.01c-.05.65-.19.85-.56,1.31l.28-1.4c.1-.26.26-.16.28.09Z"/>
      <path class="cls-132" d="M33.15,43.01l-.28-.09c0-.31,0-.68.19-.93.09.31.12.71.09,1.03Z"/>
      <path class="cls-5" d="M31.84,40.58l-.65-.09s0-.06,0-.09c.38.05.19-.08.65.19Z"/>
      <path class="cls-174" d="M30.53,39.55c.15.01.31.11.47.09l-.09.09c-.14-.01-.32,0-.47,0l.09-.19Z"/>
      <path class="cls-203" d="M30.72,40.21c.16,0,.31,0,.47,0,0,.06,0,.12,0,.19-.16-.02-.35-.06-.47-.19Z"/>
      <path class="cls-41" d="M24.64,42.45c.45-.11.43.81.34,1.13-.09.35-.3,1.02-.71.74-.19.18-1.39.07-1.12-.37.05-.24,1.01-1.45,1.12-1.5.08-.03.28.03.37,0Z"/>
      <path class="cls-183" d="M24.55,44.6s-.24-.08-.28-.09c-.24-.07-.24-.1,0-.19.55-.14.76-1.44.37-1.87.14-.04.23-.31.42-.09.49.56.17,1.91-.51,2.24Z"/>
      <path class="cls-163" d="M24.27,44.32v.19c-.5-.13-.93-.03-1.4-.19v-.09l.19-.28h.09c.15.38.79.46,1.12.37Z"/>
      <path class="cls-85" d="M60.07,98.73c-.51.79-1.32.56-2.06.28l2.06-.28Z"/>
      <path class="cls-86" d="M56.33,93.02l.04.21c-.16.03-.08.15.24.35.29.1.19.92-.09,1.03-.16.05-.23.16-.51.19-.36.03-.57-.04-.89-.09-.48-.22-.51-1.27-.09-1.59.56-.19.7-.24,1.31-.09Z"/>
      <path class="cls-45" d="M56.33,93.02c.34.08,1.52.74,1.3,1.11-.02.03-.46.25-.55.29-.26.06-.36-.17-.28-.7l-.19-.14c-.57-.01-.82-.14-.28-.56Z"/>
      <path class="cls-193" d="M55.03,93.12c-.19.55-.09,1.06.09,1.59-.16-.03-.31-.05-.47-.09-.09-.47-.09-.84,0-1.31.14-.08.2-.13.37-.19Z"/>
      <path class="cls-40" d="M57.08,94.43c-.22.11-.35.12-.56.19l.09-1.03c.07,0,.22-.19.33,0,.14.23-.08.67.14.84Z"/>
      <path class="cls-86" d="M62.69,92.93c.06.26.21.38.45.37l.11.19c.35.28.13,1.15-.37,1.31-.53.05-.74-.03-1.22-.19-.51-.34-.36-1.44.28-1.59.25-.05.42-.14.75-.09Z"/>
      <path class="cls-48" d="M61.94,93.02c-.46.44-.46,1-.28,1.59-.18-.06-.3-.11-.47-.19-.07-.2-.07-.42,0-.65-.21-.09-.18-.28.09-.56.31-.16.34-.13.65-.19Z"/>
      <path class="cls-190" d="M61.2,93.77l-.09.56c-.1-.05-.73-.22-.65-.42.25-.27.51-.54.84-.7l.09.05c-.17.15-.14.34-.18.52Z"/>
      <path class="cls-124" d="M63.53,93.4v1.22c-.18.06-.47.17-.65.19.26-.46.48-.73.37-1.31-.05-.26.1-.23.28-.09Z"/>
      <path class="cls-147" d="M63.63,93.4h-.09c-.09-.01-.22.09-.28.09-.37,0-.84-.11-.56-.56.37.05.65.3.93.47Z"/>
      <path class="cls-10" d="M61.2,94.43s-.06-.08-.09-.09c-.07-.23.05-.39.09-.56v.65Z"/>
      <path class="cls-176" d="M24.18,77.32c.03.15-.03.32-.2.51.2-.04.39-.05.57-.04.48.33.03,1.37-.38,1.54-1.09.46-1.83-1-1.16-1.82.25-.31.86-.57,1.16-.19Z"/>
      <path class="cls-57" d="M24.64,77.13c.2.09.05.51-.09.65-.55.55-1.17.08-.37-.47.08-.06.39-.22.47-.19Z"/>
      <path class="cls-188" d="M30.16,77.23v.09c.03.14-.02.29-.16.45.18-.14.32-.16.44-.07.56.46.16,1.5-.47,1.68-.37.11-.61.08-.89-.19-.86-.83-.15-2.44,1.07-1.96Z"/>
      <path class="cls-126" d="M30.16,77.32c.51-.25.67,0,.28.37-.16.15-.48.41-.65.14.04-.22.18-.41.37-.51Z"/>
      <path class="cls-21" d="M29.97,42.08c0,.36.56.44.84.37.28.06.42.35.19.56.18.05.18.13,0,.19-.17.45-.49.81-.84,1.12.08.03.08.06,0,.09-.06,0-.13,0-.19,0-.11,0-.26-.1-.37-.09-.53.03-1.01-.72-.65-1.12-.18-.05-.18-.14,0-.19.22-.29.44-.57.65-.84-.05-.29.26-.36.37-.09Z"/>
      <path class="cls-110" d="M28.57,43.48c-.09-.95.39-1.9,1.44-1.87.09,0,.51.05.52.19-.29-.09-.47.24-.56.28-.05.02-.19,0-.37.09-.2.27-.42.55-.65.84,0,.06,0,.13,0,.19-.02.27-.1.47-.37.28Z"/>
      <path class="cls-139" d="M31.94,41.89c.03.06.07.12.09.19.02.21-.18.32-.37.28-.06-.17-.45-.63-.61-.75-.15-.11-.65-.36-.79-.37.22.02.38-.08.47-.28.03,0,.07,0,.09,0,.49.15.86.49,1.12.93Z"/>
      <path class="cls-111" d="M31.37,42.82c.14.7-.03,1.13-.47,1.68-.22-.07-.51-.07-.75-.09v-.09c.34-.33.64-.66.84-1.12,0-.06,0-.13,0-.19-.08-.27.18-.39.37-.19Z"/>
      <path class="cls-133" d="M32.03,42.08c.2.48.3.91.04,1.4-.06.11-.22.17-.23.19-.19-.34-.05-.92-.19-1.31.07-.16.19-.27.37-.28Z"/>
      <path class="cls-205" d="M29.6,44.32s-.52.08-.56.09c-.3-.28-.43-.52-.47-.93l.37-.28c.03.5.25.84.65,1.12Z"/>
      <path class="cls-204" d="M31.37,42.82l-.37.19c-.03-.2-.16-.36-.19-.56.04,0,.14-.17.24-.18.27-.02.28.36.32.55Z"/>
      <path class="cls-187" d="M30.16,44.32c-.13-.07.08-.26.15-.37.18-.25.44-.58.69-.76,0,.57-.27,1-.84,1.12Z"/>
      <path class="cls-185" d="M29.6,42.17c.18.03-.05.28-.09.33-.13.16-.36.49-.56.51.06-.46.28-.65.65-.84Z"/>
    </g>
  </g>
</svg>