<?xml version="1.0" encoding="UTF-8"?>
<svg id="Layer_1" xmlns="http://www.w3.org/2000/svg" version="1.1" viewBox="0 0 64 64">
  <!-- Generator: Adobe Illustrator 30.0.0, SVG Export Plug-In . SVG Version: 2.1.1 Build 123)  -->
  <defs>
    <style>
      .st0 {
        fill: #283369;
      }

      .st1 {
        fill: #ab84f7;
      }

      .st2 {
        fill: #b5dfde;
      }

      .st3 {
        fill: #f28673;
      }
    </style>
  </defs>
  <g id="gI0mCi">
    <g>
      <path class="st2" d="M24.9,11.9l2.9,2.9c.2,0,1.2-1.2,1.5-1.4,1.5-1.2,3.7-1.1,5.1.2s.9,1.3,1.3,1.2.2-.1.3-.2c.6-.5,1.9-1.8,2.4-2.4l3.5,1.8c-1.3,5.1,3.7,9.6,8.6,7.7.3.9.7,1.6,1,2.5.6,1.6,1.1,3.5,1.1,5.2-.2-.1-1.2-.5-1.5-.6-.7-.2-2.2-.1-2.9.2-3.5,1.4-3.5,6.4-.2,8s2.8.5,3.8,0c-.8,2.7-2.4,5.2-4.1,7.4-1.3,0-2.6,0-3.8,0-1.8,0-1.5,2.2-1.5,3.4-1,.6-2.1,1.2-3.2,1.7s-1.1.3-1.5.6c-.6-3.5-1.2-7.1-1.8-10.7.5-.1.9-.4,1.3-.6s1.5-.9,1.9-1.3c0,.1.2.3.4.3.4,0,1.9-1.9,2.1-2.3,3.2-4.7,2.6-11.2-1.7-15s-.9-.9-1.1-.5c-.2-.3-.7-.5-1-.7-1.7-.8-3.6-1.4-5.5-1.4,2.1-1,1.3-3.7-.7-3.7s-.2.2-.3.2-.2,0-.3,0c-.5.1-1.1.8-1.2,1.3-.2,1.1.2,1.6,1.1,2.2-1.4,0-3.5.8-4.7,1.4s-.9.4-1.2.5c-.2-.7-1.1.2-1.3.5-4.8,4.2-4.9,12.1-.6,16.7s1,1.1,1.2.9,0-.3.2-.3c.3.4.8.7,1.3,1s1.2.7,1.8.8c-.6,3.6-1.2,7.1-1.7,10.7-1.3-.3-2.5-.8-3.7-1.3,0-1,0-2.2,0-3.2h-1.8v-8.1c-.2,0-.4,0-.6,0-2.2-.1-4.5,0-6.6,0s-1.2,0-1.7,0c.2-.2,1.7,0,1.8,0-.2-1.1-.5-2.2-.7-3.4s-.2-1.1,0-1.6c-.1-.1-1.9.1-2.2,0,1.9,0,3.8,0,5.7,0s3.5-1.8,2.6-3.7-1.6-1.1-1.7-1.3-.2-.8-.4-1.1c-.7-1.4-2.6-1.9-4-1.1.3-2.1,1.3-4,2.3-5.9,0,0,.6.3.7.3.3,0,1.5-1.2,1.7-1.5.8-.8,2.1-2.5,2.5-3.5.1.2.2,0,.3,0,1.5-1.2,3.1-2.2,4.9-2.8ZM18.4,20.7c-.2,0-.2,0-.2.3-.9-.6-1.1,1,0,.3,0,.3.2.3.2.3,0,.2-.1.7.4.7s.3-.5.1-.8c.2,0,.3-.2.3-.2.1,0,.5.2.6,0,.3-.6-.3-.4-.6-.5s0-.1-.2-.2c-.2-.2,0,0,0-.3,0-.8-1-.5-.6.3ZM44.8,39.3s0-.2,0-.2c0,.2-.2.2-.2.3s0,.4,0,.4c0,0-.8,0-.7.4,0,.4.7.2.7.3s-.1.6.2.7c.6.2.4-.6.4-.6s.9,0,.7-.5-.7-.2-.7-.3,0-.4,0-.6-.2,0-.3,0ZM22.9,41.5c0,0,.2-.9-.4-.7s-.2.6-.2.8c-.2,0,0-.1,0-.2-.2-.1-.2.1-.2.1s-.3-.1-.4.2.4.5.7.4c0,.3,0,.9.5.7s.2-.5.3-.6.5,0,.6-.2c.1-.4,0-.3-.2-.4s0-.1,0-.1c-.1,0-.3,0-.4,0Z"/>
      <path class="st0" d="M32.3,17.9c-.1,0-.3,0-.3.2v4.3c1,.2,1.9.7,2.5,1.6s.4.9.4,1.1v1.7c.2,0,1-.3,1,.1v4.5h-1.4c0,.5.2,1,.2,1.5.4,2.1.8,4.3,1.2,6.5.6,3.6,1.2,7.1,1.8,10.7s.4,2.7.7,4,.1.7.2,1c.2,0,1.6,0,1.6.2v1.9h2.8c-1-.8-1.6-2-1.4-3.3s.6-.2,1-.5c0-1.9,0-3.8,0-5.7s-.2-3.4,1.5-3.4,2.6,0,3.8,0c2.7,0,5.4,0,8.2,0,.9.1,1.4.8,1.5,1.7v7.5c1.1-.2,1,.5.9,1.4s-1.4,2.9-2.7,2.9H8.5c-.2,0-.2-.6,0-.6h2.3c.5-.8,1.2-1.5,2.1-1.9s1-.3,1.5-.5v-2.9h-4.8c-.6,0-1.4-1-1.5-1.6s-.1-3.8,0-4.5.1-.4.2-.4h1.7v-6.7c0-.1.3-.8.4-.9.2-.3.6-.4,1-.5.5,0,1.1,0,1.7,0,2.2,0,4.4-.2,6.6,0,.2,0,.4,0,.6,0v8.1h1.8c.1,1,.1,2.2,0,3.2s-.1,2-1,2.6-.8.5-.9.5h-4.1v2.9c.5.3,1.1.4,1.6.8s1.1,1,1.6,1.6h3.9s0-1.9,0-1.9c0-.3,1.6-.2,1.8-.2.2-1.7.5-3.3.7-5,.6-3.6,1.2-7.1,1.7-10.7s.9-5.4,1.4-8.1h-1.2s-.1-.1-.2,0v-4.5c.2-.2.5,0,.7-.1-.2-2,.9-3.9,3-4.2v-4.4c0-.1-.4-.1-.5-.1-.8-.6-1.2-1.1-1.1-2.2s.7-1.2,1.2-1.3.3,0,.3,0,0-.2.3-.2c2,0,2.8,2.6.7,3.7ZM30.7,17.1c1.1,1.1,2.9-.4,2-1.7s-3.2.5-2,1.7ZM29.4,26.7c1.6.1,3.3,0,4.9,0,0-.7,0-1.2-.2-1.8-.9-2.8-4.8-2.2-5.1.9s-.2.9.4.9ZM35.3,27.9c0-.2,0-.4,0-.6h-7s0,3.5,0,3.5c.2,0,.3,0,.5,0s.1,0,.3,0c2,.1,4.2-.1,6.3,0,0-1,0-2,0-3ZM33.7,31.4h-3.9c0,.1,0,.2.1.3.3.3,1.1,1.1,1.5,1.4s.4.3.4.3c.5-.6,1.3-1.1,1.8-1.6s.2-.1.1-.2ZM29,35.6l2.3-1.9-1.7-1.6s-.1.3-.2.4c-.2.8-.4,2-.5,2.7s0,.2,0,.3ZM33.9,32.1h-.2c-.1.4-1.5,1.5-1.5,1.6,0,.2,2,1.9,2.4,2.2l-.6-3.8ZM29.4,36.2l2.4,1.8c.3,0,1.8-1.4,2.2-1.6,0-.2-2-2-2.4-2.2-.1,0-2,1.6-2.2,1.8s-.1.1,0,.2ZM28.1,40.9l3.3-2.4-2.5-2-.8,4.5ZM35.4,40.9l-.8-4.2-2.4,1.8,3.1,2.4ZM18.2,38.1c-2.1,0-4.2-.1-6.3,0s-1.4.4-1.4,1.3c-.1,1.5,0,4.1,0,5.6s.1.5,0,.7c.2,0,.4,0,.6,0,2.8,0,5.6,0,8.4,0v-.2c0-2.2.1-4.4,0-6.6s0-.4,0-.7c-.5,0-1,0-1.5,0ZM31.2,43.7c.2,0,.4.3.5.2l3.3-2.4-3.3-2.7-3.4,2.6c0,.1,0,.1,0,.2.6.6,1.6,1.1,2.2,1.7s.2.4.3.4c0,0,0,0,.3,0ZM31.1,44.4c0-.2-.1-.3-.3-.4-.7-.6-1.8-1.4-2.6-1.9s-.4-.2-.4-.2l-.9,5.3,4.1-2.8ZM36.6,47.4l-1-5.5-3.4,2.4,4.4,3.1ZM31.7,44.8l-4.2,2.9,4.2,2.9,4.3-2.9-4.2-3ZM56.7,53.6v-7.9c0-.3-.6-.7-1-.7-3.8.2-8-.3-11.7,0s-1.1.4-1.1,1.2c-.2,1.8,0,4,0,5.8s0,1.1,0,1.6h.7v-7.5s.1-.3.2-.3h11.8c.3,0,.1,1.1.1,1.3,0,2.2,0,4.3,0,6.5h.8ZM8.8,50.2s0,0,0,.1c0,.6.5,1.1,1.1,1.2h10.3c1.1-.3,1.4-1.3,1.5-2.3s-.1-1.4,0-2.1.2-.7,0-.7h-12.9c0,1.2,0,2.4,0,3.5s.2.3.2.4ZM54,46.4c-3.2,0-6.4,0-9.6,0v7.2c.2,0,.4,0,.7,0s0,0,0,0c3.4,0,6.8,0,10.2,0,0-2.2,0-4.4,0-6.6s0-.4,0-.6c-.4,0-.9,0-1.3,0ZM36.7,48.1l-4.4,3.1,5.5,3.9-1.2-7ZM25.8,54.7l5.2-3.6-4-2.9c-.2,0,0,0-.1.1-.2.4,0,1-.3,1.4l-.8,5ZM37,55.2l-5.3-3.7-5.4,3.7h10.7ZM15.6,55v-2.8c0-.2-.6-.1-.7-.1v2.9h.7ZM43,54.3c-.3,0-.6,0-.9,0,0,0,.1.9.2,1s.1.3.2.4c.4,1,1,1.4,2.1,1.6,3.5-.2,7.4.4,10.8,0s2.4-1.6,2.4-3.1c-.4,0-.7,0-1.1,0-4.5-.3-9.1,0-13.7,0ZM15.5,55.6c-.2-.1-.5,0-.7,0-1.3,0-2.5.7-3.3,1.8.3,0,.6,0,.9,0,2,0,4.1,0,6.1,0-.5-.9-2-1.8-3.1-1.7ZM24.4,57.4h15.1c0-.3,0-.7,0-1s0-.6-.1-.6h-15.4v1.3s-.2.2,0,.3h.5Z"/>
      <path class="st0" d="M41.9,14.1c.1-.4.5-1.2.7-1.6,1.1-1.8,3.1-3.1,5.3-3.2v-3.8c0-.2.2-.5.4-.3s.2,3.7.3,4.2c.2.2.4.2.7.2,6.5,1,7,10.1,1.3,12.3s-10-2.6-8.6-7.7ZM48.9,10.4c-.3-.4-.3-.7-1-.5s-1.3,1.7-1.5,2.3.4,0,.6.1.1,0,.3,0c.8,0,1.7,0,2.5,0-.1-.7-.4-1.4-.9-1.9ZM46.4,10.6c.2,0,.6-.7.3-.6-.6.1-2.5,1.1-2.7,1.6s.4.2.5.2c.4.1.9.4,1.3.3l.6-1.6ZM49.9,10.7c.2.3.3,1,.5,1.3s0,.2.2.2c.2,0,1.2-.3,1.4-.4s0-.2,0-.3c0-.6-2-1.4-2.6-1.5-.1.1.5.6.5.7ZM44,12.3c-.2,0-.3,0-.5-.1-.8.9-1.1,2.1-1.3,3.3.2,0,.4,0,.6,0,.8,0,1.6,0,2.4,0,0-.9.1-1.8.3-2.6,0-.1-1.3-.5-1.6-.5ZM53.9,15.5c.2-.6-.8-3.3-1.3-3.3s-.5.2-.7.3c-.4.1-.8.2-1.2.3.2.9.3,1.8.3,2.7h2.9ZM50.1,13.1c0,0,0-.2,0-.3-1.3.3-2.6.1-3.9.1,0,.3-.4,2.4-.3,2.5.2,0,.4,0,.7,0s.3,0,.5,0c1.1,0,2.2,0,3.4,0,0-.8-.1-1.6-.3-2.3ZM43.9,18.9c.3-.1,1.8-.4,1.8-.5-.3-.8-.4-1.6-.4-2.4-.8,0-1.5,0-2.3,0s-.4,0-.6,0c-.1.6.6,2.8,1,3.1s.4-.2.5-.2ZM46.6,16c-.2,0-.8,0-.7.1,0,.8.2,1.5.4,2.3,0,0,.3-.2.4-.2,1.1-.2,2.2,0,3.3,0l.4-2.2c0-.1-.2-.1-.3-.1-1-.1-2.5,0-3.5,0ZM53.9,16h-2.9l-.4,2.5c.5,0,1.7.6,2.1.6s.4-.4.5-.6c.4-.7.7-1.6.7-2.5ZM49.7,18.9c-.7-.1-1.3-.2-2-.2s-.8,0-1.1,0-.2,0-.2.1c0,.3,1.2,2.7,1.6,2.7s1.7-2.2,1.7-2.7ZM44.4,19.4c-.2,0-.4,0-.6.2,0,.4,2.6,2,3.1,1.9,0-.1-.2-.3-.3-.3l-.8-2.1c-.5,0-1,.2-1.4.3ZM52.3,19.6c-.3,0-1.8-.6-2-.5-.2.8-.7,1.5-1.1,2.3.6,0,1.2-.3,1.7-.6s1.6-1,1.4-1.2Z"/>
      <path class="st0" d="M10.6,16.1c.1,0,.8.5.8.6s0,.2,0,.3-.8,1.1-.9,1.4c-3.8,6.4-4.8,13.6-2.4,20.7s.9,2.1.9,2.3-.8.6-1,.7c-.2,0-1.2-3.1-1.4-3.5-1.8-6.1-1.3-12.6,1.4-18.4s2.1-3.9,2.5-4Z"/>
      <path class="st0" d="M38.5,6s.2,0,.3,0c1.7.5,3.4,1.2,5,2,0,.1-.4,1.1-.5,1.1-1.8-.9-3.6-1.7-5.6-2.2-2.8-.7-5.6-.9-8.5-.7s-.1.2-.2.2c-.3,0-.7,0-1,0s-.2.2-.6.2c-1.3.1-3.4.9-4.8,1.5s-1.8.9-1.9.9c-.2,0-.8-1-.5-1.2.5-.3,1.3-.7,1.9-.9,1.8-.8,3.7-1.3,5.6-1.6s0-.1.1-.2c.4-.1.7,0,1,0s0-.2.2-.2.4.1.5,0,0-.2.2-.2c2.7-.3,6.2.2,8.8.9Z"/>
      <path class="st0" d="M38.4,12.2c-.5.6-1.8,1.9-2.4,2.4s-.2.2-.3.2c-.4,0-1-.9-1.3-1.2-1.4-1.3-3.6-1.4-5.1-.2s-1.3,1.4-1.5,1.4l-2.9-2.9c0-.1-.2-.3-.2-.4,0-.2,1-1.2,1.2-1.4,3.5-3,8.3-3,11.7.1s1.1,1,1.2,1.3-.2.5-.4.7ZM31.4,8.6h-1.8c-.2.4-.7.4-1.1.6-1.2.5-2.4,1.3-3.2,2.4.3.2.7,1,1,1s.4-.3.5-.4c1.1-1,1.9-1.7,3.4-2,2.7-.5,4.9.4,6.6,2.4.2.1.9-.5,1-.7.2-.3-.4-.8-.6-1-1.2-1.3-4.1-2.6-5.9-2.3ZM32.5,12.1c.2,0,.3,0,.5,0,1.2.4,1.8,1.1,2.7,1.9.1-.2.9-.8.9-.9-1.6-2-4-3-6.5-2.2s-2.4,1.2-3.1,2.2l.9.9c.8-.8,2-1.9,3.2-2s1.2,0,1.6.1Z"/>
      <path class="st0" d="M56.8,22.1c.4,1.3.9,2.5,1.1,3.8,1,4.9.6,10.4-1.4,15.1s-.6,1.5-.7,1.5c-.1,0-.9-.3-1-.4s-.1,0-.1-.1c3-6.1,3.3-13.2.7-19.5.4,0,.7.2,1,0s0-.3.3-.3Z"/>
      <path class="st0" d="M19.7,14.7c-.4,1-1.8,2.6-2.5,3.5s-1.4,1.5-1.7,1.5-.6-.3-.7-.3c-.2-.1-.7-.8-1-1-2.3-2.4-4.9-6.4-1.5-9.2s9.5.8,7.5,5.6ZM12.9,16.4c.7,1,1.5,1.9,2.5,2.6.1,0,.2,0,.2,0,.3-.2,1.1-1.1,1.4-1.4,1.9-2.1,3.8-5,1.4-7.6s-.4-.4-.7-.6c-1.9-1.3-4.5-.9-5.9,1s-.4,4.3,1,6.1Z"/>
      <path class="st0" d="M10.3,32.4c0,0-.1,0-.2,0h0c0,0-.1,0-.2,0h-.3c-1.7-.3-2.3-2.2-1.2-3.5s.3-.2.4-.3c0-.1,0-.7.2-1s.7-.9,1-1,1.1,0,1.2-.1.4-.7.6-.8.6-.6.7-.6c1.4-.7,3.2-.3,4,1.1s.3,1,.4,1.1c.2.2,1.3.3,1.7,1.3.9,2-.5,3.7-2.6,3.7s-3.8,0-5.7,0ZM16.1,27.6c-.3-2.2-2.7-2.9-4.1-1.2s-.4.8-.7.8-.6,0-1,0-1,.6-1,1,.1,0,.2.2c.3.4-.6.7-.8.9-.9.9-.3,2.3.9,2.5s5.3.2,6.6,0c2.3-.2,2.6-3.1.7-3.8s-.7.1-.8-.5Z"/>
      <path class="st0" d="M52.6,29.5c.3.2,1.2,1.4,1.3,1.8,1,2.1,0,4.8-2.1,5.9s-2.8.5-3.8,0c-3.3-1.7-3.3-6.6.2-8s2.2-.4,2.9-.2,1.3.5,1.5.6ZM52.6,30.4c-.3-.6-1.5-1.1-2.2-1.1-4.1-.4-5.9,4.8-2.4,6.9,3.3,2,7-1.5,5.4-4.9s-.4-.7-.7-.9Z"/>
      <path class="st0" d="M56,20.8c-.2,0-.4,0-.6.1s-.2.5-.4.2-.4-1-.8-1.4c.1-.4.4-.6.5-1,.1,0,.1,0,.2,0,.1.1,1.1,1.9,1,2Z"/>
      <path class="st0" d="M5.8,57.9c-.2,0-.2-.6,0-.6s1.2,0,1.4,0,.1.6,0,.6c-.3,0-1.3,0-1.5,0Z"/>
      <path class="st2" d="M9.8,32.4c0,0,0,0-.3,0h.3Z"/>
      <path class="st2" d="M10,32.4h0s0,0,0,0Z"/>
      <path class="st0" d="M25,19.9c0,0-1,1-1.2,1.2-3.8,3.7-4.3,10-1.3,14.4s1.4,1.5,2,2.3c-.1,0-.1.3-.2.3-.2.1-1.1-.8-1.2-.9-4.3-4.6-4.2-12.5.6-16.7.3-.2,1.2-1.1,1.3-.5Z"/>
      <path class="st0" d="M39.1,37.6c.9-.8,2.2-2.5,2.8-3.7,2.3-4.8,1-10.3-3.2-13.5,0,0,0-.3,0-.3.3-.4.9.3,1.1.5,4.3,3.8,5,10.4,1.7,15-.3.4-1.8,2.3-2.1,2.3s-.3-.2-.4-.3Z"/>
      <path class="st0" d="M44.8,39.3s.2-.1.3,0,0,.5,0,.6.7,0,.7.3-.7.4-.7.5.2.8-.4.6-.2-.7-.2-.7-.7.2-.7-.3.7-.3.7-.4,0-.3,0-.4.3-.1.2-.3c.1,0,0,.1,0,.2Z"/>
      <path class="st0" d="M22.9,41.5s.3,0,.4,0,0,.1,0,.1c.1,0,.3,0,.2.4s-.5.2-.6.2,0,.4-.3.6-.5-.4-.5-.7c-.2.1-.7,0-.7-.4s.4-.1.4-.2,0-.3.2-.1,0,.2,0,.2c0-.2,0-.7.2-.8.6-.2.4.6.4.7Z"/>
      <path class="st0" d="M19.2,20.8c.3,0,.9-.1.6.5s-.5,0-.6,0c-.1-.2,0-.4,0-.6Z"/>
      <path class="st0" d="M18.2,21c0,0,0,.2,0,.3-1.1.7-.9-1,0-.3Z"/>
      <path class="st0" d="M18.4,20.7c-.4-.7.6-1.1.6-.3s-.3,0,0,.3c-.1,0-.4,0-.5,0Z"/>
      <path class="st0" d="M18.9,21.6c.2.2.2.7-.1.8s-.3-.5-.4-.7c.2,0,.4,0,.5,0Z"/>
      <path class="st3" d="M17.7,38.7c.6,0,1.4,0,2,0,0,2.2,0,4.4,0,6.6v.2c-2.9,0-5.7.1-8.5,0v-6.1c0-.4.3-.7.7-.8,1.5-.2,3.8,0,5.4,0s.3,0,.5,0Z"/>
      <path class="st3" d="M54,46.9s0,0,.2,0c.4,0,.8,0,1.1,0,0,2.2,0,4.4,0,6.6-3.4,0-6.8,0-10.2,0v-3.7c0-1,0-1.9,0-2.9h0c2.9,0,5.9-.2,8.9,0ZM48.8,47.8c-.2,0-.3.2-.3.3-.2,1.2.1,2.8,0,4.1,0,.2.1.2.3.2.3,0,2.6-1.5,3-1.8s.6-.3.4-.7-2.3-1.6-2.7-1.8-.5-.4-.7-.3Z"/>
      <path class="st1" d="M21.5,47c0,.7.1,1.4,0,2.1,0,1-.3,2-1.5,2.3h-10.3c-.6-.1-1.1-.6-1.1-1.2s0-.1,0-.1l.4.2v-3.3s12.3,0,12.3,0Z"/>
      <path class="st1" d="M56.6,54.3c.4,0,.7,0,1.1,0,0,1.4-.8,2.9-2.4,3.1-3.4.3-7.4-.2-10.8,0-1.1-.2-1.7-.6-2.1-1.6.2-.3,0-1,.6-1.1.7-.1,2.1,0,2.9,0s1.3,0,1.9,0c-1.1,1-.6,2.1.9,2.1s.5,0,.7,0c1,0,3.5.5,3.2-1.2s-.4-.6-.8-.8c1.4,0,3.1.1,4.4,0s.4,0,.4-.4Z"/>
      <path class="st1" d="M35.3,27.9c0,1,0,2,0,3-2.1,0-4.2.1-6.3,0s-.2,0-.3,0v-2.9s6.5,0,6.5,0Z"/>
      <path class="st1" d="M39.5,56.4c0,.3,0,.7,0,1h-15.1s0-1,0-1h15.1Z"/>
      <path class="st1" d="M34.1,24.9c.2.6.2,1.1.2,1.8-1.6,0-3.3.1-4.9,0-.1-2.8,2.9-4,4.7-1.8Z"/>
      <path class="st1" d="M15.5,55.6c1.1,0,2.5.8,3.1,1.7-2,0-4.1,0-6.1,0,.4-.7,1.2-1.2,2-1.4s.8-.3,1.1-.3Z"/>
      <path class="st1" d="M15.6,55h-.7v-2.9c.1,0,.7,0,.7.1v2.8Z"/>
      <path class="st2" d="M45.1,53.6s0,0,0,0c0-1.2,0-2.5,0-3.7v3.7Z"/>
      <path class="st1" d="M53.9,15.5h-2.9c0-.9-.1-1.8-.3-2.7.4-.1.8-.2,1.2-.3s.5-.3.7-.3c.6,0,1.5,2.7,1.3,3.3Z"/>
      <path class="st1" d="M50.1,13.1c.2.8.4,1.5.3,2.3-1.1,0-2.2,0-3.4,0s-.4,0-.5,0c0-.3.1-2,.3-2.1,1.1,0,2.2.1,3.3-.2Z"/>
      <path class="st1" d="M46.6,16c1,0,2.5-.1,3.5,0s.2,0,.3.1l-.4,2.2c-1.1,0-2.2-.3-3.3,0v-2.2Z"/>
      <path class="st1" d="M53.9,16c0,.9-.3,1.7-.7,2.5s-.3.6-.5.6c-.4,0-1.6-.6-2.1-.6l.4-2.5h2.9Z"/>
      <path class="st1" d="M44,12.3c.2,0,1.5.4,1.6.5-.2.8-.3,1.7-.3,2.6-.8,0-1.6,0-2.4,0,.1-1.1.6-2.2,1.2-3.1Z"/>
      <path class="st1" d="M49.7,18.9c0,.5-1.3,2.7-1.7,2.7s-1.7-2.4-1.6-2.7.1-.1.2-.1c.2,0,.8,0,1.1,0,.7,0,1.4,0,2,.2Z"/>
      <path class="st1" d="M43,16c.8,0,1.5,0,2.3,0,0,.8.1,1.6.4,2.4,0,0-1.6.4-1.8.5-.5-.9-1-1.9-.9-2.9Z"/>
      <path class="st1" d="M48.9,10.4c.5.5.8,1.2.9,1.9-.8,0-1.7.1-2.5,0s-.2,0-.3,0c.2-.9.8-2.1,1.9-1.9Z"/>
      <path class="st1" d="M52.3,19.6c.2.2-1.2,1.1-1.4,1.2-.5.3-1.1.6-1.7.6.4-.8.9-1.5,1.1-2.3.2-.1,1.7.4,2,.5Z"/>
      <path class="st1" d="M44.4,19.4c.4-.2.9-.4,1.4-.3l.8,2.1c-.8-.5-1.8-.8-2.2-1.7Z"/>
      <path class="st1" d="M52,11.5c0,0,0,.2,0,.3-.2.1-1.2.4-1.4.4,0,0-.1-.1-.2-.2-.2-.3-.3-1-.5-1.3.8,0,1.4.7,2.1.8Z"/>
      <path class="st1" d="M46.4,10.6l-.6,1.6c-.5,0-.9-.2-1.3-.3.4-.7,1.3-.9,1.9-1.2Z"/>
      <path class="st3" d="M31.4,8.6c1.7-.4,4.7,1,5.9,2.3s.8.7.6,1-.8.8-1,.7c-1.7-2-4-2.9-6.6-2.4s-2.3,1-3.4,2c-.4-.7-.9-.6-.2-1.3,1.3-1.3,3-1.9,4.8-2.2Z"/>
      <path class="st3" d="M17.5,9.4s0,0,0,0,.1,0,.2,0c0,.1.5.4.7.4,2.4,2.6.5,5.5-1.4,7.6s-1.1,1.2-1.4,1.4-.1.1-.2,0c-.9-.8-1.7-1.7-2.5-2.6-.2-.6-.6-1.2-.7-1.8-.9-2.8.7-5.7,3.9-5.5s1.3.2,1.5.3ZM14.9,10.6c-2.3.4-2.2,3.9,0,4.2,3.5.5,3.4-4.8,0-4.2Z"/>
      <path class="st1" d="M9.7,31.9c-.8-1-.7-2.8.9-2.4,0-.7.1-1.5,1-1.4s.4.2.7.2c-.2-1.6,1.9-2.7,3-1.6s.4.9.9,1c0,.6.3.4.8.5,1.9.7,1.6,3.6-.7,3.8s-5.4.2-6.6,0Z"/>
      <path class="st3" d="M52.6,30.4c.3.2.5.5.7.9,1.7,3.4-2.1,6.9-5.4,4.9-.5-.7-1-1.2-1.2-2.1-.8-3.3,3.2-5.7,5.8-3.7ZM52.1,31.5c-.2-.1-3.4,0-3.8,0s-.4.5.2.6,2.6,0,3.3,0,.3,0,.4-.2,0-.4,0-.4ZM48.4,32.7c-.4.1-.3.6.2.6s1.8,0,1.9,0,.2-.4,0-.5-1.8-.2-2.1-.1ZM51.3,32.7c-.6.1-.3.7.5.6s.4-.8-.5-.6ZM48.2,34.5h3.8c.2,0,.2-.5-.2-.6-1.1,0-2.3-.1-3.3,0s-.6.5-.3.6Z"/>
      <path class="st0" d="M40.8,25.1c1.4,3.1,1.1,6.4-.8,9.3s-1.3,1.7-1.8,2-.6-.5-.5-.5.2,0,.2-.1c4-3.9,4.2-9.7,0-13.6-.2-.2-.6-.4-.7-.5s.1-.6.4-.6,1.3,1.1,1.5,1.3c.8.8,1.1,1.6,1.6,2.6Z"/>
      <path class="st0" d="M37.5,23.4c3.2,3.1,3.2,8.7-.3,11.6-.2-.1-.3-.4-.2-.6s.7-.8.9-1c2-2.8,1.8-6.5-.4-9.1s-1.1-.9-1.1-1,.3-.5.4-.5.7.5.8.6Z"/>
      <path class="st0" d="M26.3,21.4c0,.1,0,.2-.1.2-.4.4-1,.8-1.5,1.2-3.1,3.3-3.1,8.4-.3,11.9s1.1,1.1,1.1,1.2-.3.5-.4.5c-.3,0-1.8-2.2-2.1-2.6-2.1-3.7-1.5-8.8,1.6-11.7s1.1-1.1,1.7-.7Z"/>
      <path class="st0" d="M26.8,22.7c.2,0,.5.3.4.4s-1,.9-1.2,1.1c-2,2.4-2.2,5.9-.6,8.5s1.2,1.4,1.2,1.5c0,.4-.4.5-.7.2-2.4-2.3-2.9-6.5-1.3-9.3s1.8-2.4,2.1-2.5Z"/>
      <path class="st0" d="M48.8,47.8c.2,0,.5.2.7.3.3.2,2.6,1.6,2.7,1.8.2.4-.1.5-.4.7-.4.3-2.6,1.8-3,1.8s-.3,0-.3-.2c.1-1.3-.2-2.8,0-4.1s0-.3.3-.3ZM49.1,48.7v2.9l2.2-1.4-.2-.2-2.1-1.3Z"/>
      <path class="st2" d="M45,47h0c0,0,0,0,0,0Z"/>
      <path class="st0" d="M51.8,54.7c.4.2.7.3.8.8.3,1.7-2.2,1.2-3.2,1.2s-.5,0-.7,0c-1.5,0-2-1-.9-2.1,1.3,0,2.7,0,4,0ZM47.9,55.4c-.3.3-.2.7.3.7,1.1.1,2.5-.1,3.6,0,.6-.3.4-.8-.2-.8s-2.4,0-3.1,0-.3,0-.4.1Z"/>
      <path class="st0" d="M14.9,10.6c3.4-.6,3.5,4.7,0,4.2s-2.3-3.8,0-4.2ZM14.9,14.3s.7,0,.8,0c1.2-.3,1.7-1.8.7-2.7s-3.2.2-2.5,1.8.4.6.8.8,0,.1,0,.1Z"/>
      <path class="st0" d="M52.1,31.5s0,.3,0,.4c0,.2-.3.2-.4.2-.8,0-2.6,0-3.3,0s-.3-.6-.2-.6c.5,0,3.7-.1,3.8,0Z"/>
      <path class="st0" d="M48.2,34.5c-.3,0-.2-.5.3-.6,1-.1,2.3,0,3.3,0,.4,0,.3.6.2.6h-3.8Z"/>
      <path class="st0" d="M48.4,32.7c.2,0,1.9,0,2.1.1s0,.4,0,.5-1.6.1-1.9,0c-.5,0-.5-.5-.2-.6Z"/>
      <path class="st0" d="M51.3,32.7c.9-.2,1.2.6.5.6s-1.1-.5-.5-.6Z"/>
    </g>
  </g>
</svg>