<?xml version="1.0" encoding="UTF-8"?>
<svg id="Layer_1" xmlns="http://www.w3.org/2000/svg" version="1.1" viewBox="0 0 100 125">
  <!-- Generator: Adobe Illustrator 30.0.0, SVG Export Plug-In . SVG Version: 2.1.1 Build 123)  -->
  <defs>
    <style>
      .st0 {
        fill: #401075;
      }
    </style>
  </defs>
  <g id="q9Plxw.tif">
    <g>
      <path class="st0" d="M73.1,70.6c.8.8.7,2.4,0,3.2-6.5,2.1-14,3-19.7,7.1-6,4.3-7.9,11.2-9.8,17.9-.4,1.5-.8,4.6-1.3,5.7-.8,1.7-3.2,1.5-4-.3s-1.3-5.4-1.9-7.6c-1.7-5.9-3.8-11.9-9-15.7-5.5-4-12.8-5.2-19.3-6.9-1.6-.8-1.8-3,0-3.9,1.8-1,6.6-1.6,8.9-2.3,13.4-4,16.3-8.9,20-22,.5-1.6.8-4.7,1.4-6,.8-1.7,3.3-1.8,4,0,1.5,5.6,2.5,11.6,5.2,16.8,3.8,7,9.9,9.5,17.2,11.5,1.6.4,7.5,1.5,8.3,2.3h0v.2Z"/>
      <path class="st0" d="M75.3,19.9c.7.8,1.7,6.1,2.3,7.7,1.6,4.2,3.7,6,7.9,7.5,1.8.6,4.9,1,6.4,1.8,1.6.8,1.6,3,0,3.9s-4.8,1.2-6.7,1.9c-5.5,2-6.8,4.5-8.4,9.8-.6,2-.8,7.2-4.2,5.5-1.3-.7-2-5.4-2.5-7-1.7-5.2-3.7-7-8.9-8.7-1.4-.5-6.1-1.2-6.6-2.4-.3-.7-.3-1.6,0-2.2.7-1.2,6-2,7.5-2.6,4.6-1.7,6.4-3.8,7.9-8.4.5-1.6,1.1-5.2,1.8-6.3s2.5-1.3,3.3-.4h.2Z"/>
    </g>
  </g>
</svg>