<?xml version="1.0" encoding="UTF-8"?>
<svg id="Layer_1" xmlns="http://www.w3.org/2000/svg" version="1.1" viewBox="0 0 64 64">
  <!-- Generator: Adobe Illustrator 30.0.0, SVG Export Plug-In . SVG Version: 2.1.1 Build 123)  -->
  <defs>
    <style>
      .st0 {
        fill: #75a9ce;
      }

      .st1 {
        fill: #fff;
      }

      .st2 {
        fill: #7d75b6;
      }
    </style>
  </defs>
  <circle class="st1" cx="32" cy="32" r="32"/>
  <g id="VwA2dJ">
    <g>
      <path class="st2" d="M50,19.2c-.4.7-7.7,4.1-9.1,4.9-4.6,2.5-13.4,5.5-19,6.4-5.1.8-15.3,2-14.2-6,1.4-.1,1.4,1.4,2.4,2.1,6.7,5.1,26.6-3.5,33.5-7,1.1-.5,4.3-2.9,5-3,1.1-.1,2,1.8,1.5,2.7Z"/>
      <path class="st0" d="M15.6,43.3c1.1-.7,2.2-.8,1.9-2.4,8.6,0,20.3-3.9,28.1-7.5,1.4-.6,7.1-4.2,7.5-4.3.7-.1,1.8,1,1.3,1.8-1.7,3.3-17.1,8.9-21.1,10-6.3,1.8-11.3,3.1-17.8,2.2Z"/>
      <path class="st2" d="M45.3,12.3c1.5,1.1-.8,3-1.7,3.6-5.5,3.9-21.6,9.6-28.2,9-4.4-.4-7.4-3-4.2-7.1,0,1,.9,3.7,1.8,4.1.5.3,5.6.2,6.7,0,4.6-.5,10.8-2.8,15.1-4.7,2.5-1.2,6.8-4.2,8.8-4.9.5-.2,1.5-.4,1.9-.2h0Z"/>
      <path class="st2" d="M31.2,31.5c.7,2.4-1.8,2.2-1.9,3.8-6.7,1.7-24.5,5.5-22.6-6.1.8,0,.3,1.1.7,1.9,3.4,6.3,18.4,2.1,23.8.5Z"/>
      <path class="st2" d="M18.5,11.8c0,.4-.1,1.2,0,1.4,1.2,1.1,8.6-2.6,9.4-1.8.1.1.2,1.1-.3,1.4-1.5.9-8.8,2.9-10.2,1.9-.5-.4,0-1.9-1-1.4-.8.4-1,2.6-.6,3.2,2,3.2,20.5-4.4,22.9-7.4,2.2.8,1.8,1.8.1,3-4.4,3.2-18.4,8.7-23.6,7.1-5.3-1.6,2.6-8.2,3.3-7.3h0Z"/>
      <path class="st0" d="M14.7,48l.5-1.4c4,1,10.2,0,14.3-1,3.5-.8,9.7-3.9,12.4-4.2,1.1-.1,2.5.2,2.1,1.6-.2.7-8.2,3.3-9.5,3.7-5.9,1.7-13.9,3.5-19.7,1.3h0Z"/>
      <path class="st0" d="M26.7,51.3c5.7-.6,15.3-4.2,20.5-6.8.3-.2,5.5-3.9,4.2-1-.5,1.2-9.1,5-10.8,5.7-7.3,2.8-16.5,5.3-24,2.1.1-1.3,2.3,0,2.6,0,2.4,0,5.3.2,7.5,0h0Z"/>
      <path class="st0" d="M31.2,31.5c1.9-.5,6.9-2.9,8.3-2.9s2.6,1.2,1.7,2.5c-.7,1-10,3.7-11.8,4.1,0-1.6,2.5-1.4,1.9-3.8h0Z"/>
      <path class="st0" d="M47.2,48c.7.7-2.4,2.4-2.8,2.6-6,3.2-14.5,5.3-21.2,4l9.1-1c5.2-1,10.1-3.3,14.9-5.6h0Z"/>
      <path class="st2" d="M17.5,41c.3,1.6-.8,1.7-1.9,2.4-4.2-.6-8.2-1.4-8.5-6.6.8.2.8,1.2,1.6,1.9,2.4,1.9,5.7,2.3,8.7,2.3h0Z"/>
      <path class="st2" d="M15.2,46.6l-.5,1.4c-.4-.2-1.2,0-1.7-.4l-2.6-2.8c1.6.3,3.2,1.5,4.7,1.9Z"/>
    </g>
  </g>
</svg>