<svg xmlns="http://www.w3.org/2000/svg" width="420" height="860"><style>.title{font:600 18px system-ui,-apple-system,Segoe UI,Roboto;fill:#0b1324}.text{font:12px system-ui,-apple-system,Segoe UI,Roboto;fill:#24324b}.btn{fill:#eef2ff;stroke:#c7d2fe;stroke-width:1;rx:10;ry:10}.btn-text{font:600 13px system-ui,-apple-system,Segoe UI,Roboto;fill:#2b3e66;text-anchor:middle}</style><path d="M1 1h418v858H1z" style="fill:#f7f8fb;stroke:#cfd8e3;stroke-width:2"/><path d="M0 0h380v820H0z" style="fill:#fff;stroke:#1f2a44;stroke-width:2;rx:28;ry:28" transform="translate(20 20)"/><text x="24" y="56" class="title" transform="translate(20 20)">Welcome</text><text x="24" y="80" class="text" transform="translate(20 20)">See only plans available at your address — compare &amp; activate in minutes.</text><path d="M44 130h332v48H44z" class="btn"/><text x="166" y="30" class="btn-text" transform="translate(44 130)">New customer</text><path d="M44 188h332v48H44z" class="btn"/><text x="166" y="88" class="btn-text" transform="translate(44 130)">Returning customer</text><path d="M44 246h332v48H44z" class="btn"/><text x="166" y="146" class="btn-text" transform="translate(44 130)">Port my number</text><path d="M44 304h332v48H44z" class="btn"/><text x="166" y="204" class="btn-text" transform="translate(44 130)">Explore as guest</text><text class="title" transform="translate(44 340)">Location &amp; Address</text><text y="22" class="text" transform="translate(44 340)">We use your address to show eligible plans. You can edit anytime.</text><path d="M44 370h332v46H44z" class="btn"/><text x="166" y="58" class="btn-text" transform="translate(44 340)">Allow location</text><text y="92" style="font:11px system-ui,-apple-system,Segoe UI,Roboto;fill:#51607f" transform="translate(44 340)">Or enter address manually</text><path d="M44 440h332v46H44z" class="btn"/><text x="166" y="128" class="btn-text" transform="translate(44 340)">Enter address</text><path d="M0 0h180v26H0z" style="fill:#eafff0;stroke:#9feab9;stroke-width:1;rx:8;ry:8" transform="translate(44 520)"/><text x="10" y="18" class="text" transform="translate(44 520)">Privacy: address never shared</text><path d="M0 0h332v48H0z" style="fill:#2b7fff;stroke:#1e5fd1;stroke-width:1;rx:10;ry:10" transform="translate(44 762)"/><text x="166" y="30" style="font:600 14px system-ui,-apple-system,Segoe UI,Roboto;fill:#fff;text-anchor:middle" transform="translate(44 762)">Continue</text></svg>