<svg xmlns="http://www.w3.org/2000/svg" width="420" height="860"><style>.chip{fill:#eef2ff;stroke:#c7d2fe;stroke-width:1;rx:10;ry:10}.chipTxt{font:11px system-ui,-apple-system,Segoe UI,Roboto;fill:#2b3e66}.feat{font:12px system-ui,-apple-system,Segoe UI,Roboto;fill:#51607f}.cta-sec{fill:#eef2ff;stroke:#c7d2fe;stroke-width:1;rx:10;ry:10}.ctaSecTxt{font:600 13px system-ui,-apple-system,Segoe UI,Roboto;fill:#2b3e66;text-anchor:middle}</style><path d="M1 1h418v858H1z" style="fill:#f7f8fb;stroke:#cfd8e3;stroke-width:2"/><path d="M0 0h380v820H0z" style="fill:#fff;stroke:#1f2a44;stroke-width:2;rx:28;ry:28" transform="translate(20 20)"/><text style="font:600 16px system-ui,-apple-system,Segoe UI,Roboto;fill:#0b1324" transform="translate(44 44)">Explore &amp; Compare</text><path d="M44 72h128v28H44z" class="chip"/><text x="12" y="36" class="chipTxt" transform="translate(44 56)">Location verified</text><path d="M180 72h160v28H180z" class="chip"/><text x="148" y="36" class="chipTxt" transform="translate(44 56)">Residential — FTTH</text><path d="M44 106h128v28H44z" class="chip"/><text x="12" y="70" class="chipTxt" transform="translate(44 56)">Best for streaming</text><path d="M180 106h120v28H180z" class="chip"/><text x="148" y="70" class="chipTxt" transform="translate(44 56)">₹1200–1500</text><path d="M0 0h332v178H0z" style="fill:#fff;stroke:#cfd8e3;stroke-width:1;rx:12;ry:12" transform="translate(44 140)"/><text x="16" y="28" style="font:600 14px system-ui,-apple-system,Segoe UI,Roboto;fill:#0b1324" transform="translate(44 140)">Provider A · Stream Plus 200</text><text x="16" y="52" style="font:600 16px system-ui,-apple-system,Segoe UI,Roboto;fill:#0b1324" transform="translate(44 140)">₹1299 <tspan style="font:12px;fill:#6b7b9b">/month</tspan></text><text x="16" y="76" class="feat" transform="translate(44 140)">200 Mbps • Unlimited • Router</text><text x="16" y="94" class="feat" transform="translate(44 140)">Install ETA: 1–2 days</text><path d="M16 106h110v24H16z" style="fill:#eafff0;stroke:#9feab9;stroke-width:1;rx:8;ry:8" transform="translate(44 140)"/><text x="24" y="123" style="font:11px system-ui,-apple-system,Segoe UI,Roboto;fill:#1a7f3c" transform="translate(44 140)">✅ Available</text><text x="16" y="150" style="font:12px system-ui,-apple-system,Segoe UI,Roboto;fill:#2b3e66" transform="translate(44 140)">Why recommended: matches budget; FTTH at your building; high streaming interest → CDN pack.</text><path d="M224 276h64v32h-64z" class="cta-sec"/><text x="212" y="156" class="ctaSecTxt" transform="translate(44 140)">Compare</text><path d="M248 136h68v32h-68z" style="fill:#2b7fff;stroke:#1e5fd1;stroke-width:1;rx:10;ry:10" transform="translate(44 140)"/><text x="282" y="156" style="font:600 14px system-ui,-apple-system,Segoe UI,Roboto;fill:#fff;text-anchor:middle" transform="translate(44 140)">Activate</text><path d="M44 762h160v48H44z" class="cta-sec"/><text x="80" y="30" class="ctaSecTxt" transform="translate(44 762)">Bundles</text><path d="M216 762h160v48H216z" class="cta-sec"/><text x="252" y="30" class="ctaSecTxt" transform="translate(44 762)">Show ineligible</text></svg>