<svg xmlns="http://www.w3.org/2000/svg" width="420" height="860"><style>.cell,.colHdr{font:600 12px system-ui,-apple-system,Segoe UI,Roboto;fill:#2b3e66;text-anchor:middle}.cell{font:12px system-ui,-apple-system,Segoe UI,Roboto;fill:#51607f}.toggle{fill:#eef2ff;stroke:#c7d2fe;stroke-width:1;rx:10;ry:10}.toggleTxt{font:600 11px system-ui,-apple-system,Segoe UI,Roboto;fill:#2b3e66;text-anchor:middle}</style><path d="M1 1h418v858H1z" style="fill:#f7f8fb;stroke:#cfd8e3;stroke-width:2"/><path d="M0 0h380v820H0z" style="fill:#fff;stroke:#1f2a44;stroke-width:2;rx:28;ry:28" transform="translate(20 20)"/><path d="M0 0h380v820H0z" style="fill:#0b1324;fill-opacity:.25" transform="translate(20 20)"/><path d="M0 0h380v440H0z" style="fill:#fff;stroke:#1f2a44;stroke-width:2;rx:16;ry:16" transform="translate(20 400)"/><text x="190" y="28" style="font:600 16px system-ui,-apple-system,Segoe UI,Roboto;fill:#0b1324;text-anchor:middle" transform="translate(20 400)">Compare plans (3 max)</text><path d="M44 448h140v28H44z" class="toggle"/><text x="70" y="20" class="toggleTxt" transform="translate(44 448)">Contract-free</text><path d="M196 448h180v28H196z" class="toggle"/><text x="242" y="20" class="toggleTxt" transform="translate(44 448)">Data cap toggle</text><text x="52" class="colHdr" transform="translate(44 490)">Plan A</text><text x="152" class="colHdr" transform="translate(44 490)">Plan B</text><text x="252" class="colHdr" transform="translate(44 490)">Plan C</text><text x="52" y="24" class="cell" transform="translate(44 490)">₹1299 · 200 Mbps</text><text x="152" y="24" class="cell" transform="translate(44 490)">₹1099 · 100 Mbps</text><text x="252" y="24" class="cell" transform="translate(44 490)">₹1499 · 300 Mbps</text><text x="52" y="48" class="cell" transform="translate(44 490)">ETA 1–2d</text><text x="152" y="48" class="cell" transform="translate(44 490)">ETA 2–3d</text><text x="252" y="48" class="cell" transform="translate(44 490)">ETA 1–2d</text><text x="52" y="72" class="cell" transform="translate(44 490)">12 mo contract</text><text x="152" y="72" class="cell" transform="translate(44 490)">No contract</text><text x="252" y="72" class="cell" transform="translate(44 490)">24 mo contract</text><text x="52" y="96" class="cell" transform="translate(44 490)">Effective ₹1299</text><text x="152" y="96" class="cell" transform="translate(44 490)">Effective ₹1099</text><text x="252" y="96" class="cell" transform="translate(44 490)">Effective ₹1399</text><path d="M0 0h332v44H0z" style="fill:#2b7fff;stroke:#1e5fd1;stroke-width:1;rx:10;ry:10" transform="translate(44 760)"/><text x="166" y="28" style="font:600 13px system-ui,-apple-system,Segoe UI,Roboto;fill:#fff;text-anchor:middle" transform="translate(44 760)">Activate selected</text></svg>






